<svg width="174" height="103" viewBox="0 0 174 103" fill="none" xmlns="http://www.w3.org/2000/svg">
<path d="M68.046 1.59412H96.6434C101.137 1.59412 104.814 5.28879 104.814 9.8045V26.6358C104.814 31.1515 101.137 34.8462 96.6434 34.8462H80.5063L69.2717 44.6986V34.8462H65.5948C62.3266 34.8462 59.8754 32.3831 59.8754 29.3042V9.8045C59.8754 5.28879 63.5522 1.59412 68.046 1.59412Z" stroke="white" stroke-width="3" stroke-linecap="round" stroke-linejoin="round"/>
<path d="M78.2178 39.0568C78.2178 41.3518 80.0424 43.2295 82.2724 43.4381L96.2609 43.8554L107.411 53.8698V43.8554H111.06C114.101 43.8554 116.737 41.3518 116.737 38.0136V18.1935C116.737 13.6035 113.088 9.84814 108.627 9.84814H104.94" stroke="white" stroke-width="3" stroke-linecap="round" stroke-linejoin="round"/>
<path d="M73.3624 16.0837H75.9169C76.9798 16.0837 77.8414 16.9453 77.8414 18.0081V18.0081C77.8414 19.071 76.9798 19.9326 75.9169 19.9326H73.3624V23.0711C73.3624 24.2137 72.4361 25.1399 71.2936 25.1399V25.1399C70.151 25.1399 69.2248 24.2137 69.2248 23.0711V19.9326H66.6571C65.5943 19.9326 64.7327 19.071 64.7327 18.0081V18.0081C64.7327 16.9453 65.5943 16.0837 66.6571 16.0837H69.2248V13.0916C69.2248 11.949 70.151 11.0228 71.2936 11.0228V11.0228C72.4361 11.0228 73.3624 11.949 73.3624 13.0916V16.0837Z" fill="white"/>
<circle cx="92.8252" cy="12.4646" r="1.79055" fill="white"/>
<circle cx="92.5863" cy="24.1575" r="1.79055" fill="white"/>
<circle cx="97.4806" cy="18.5525" r="1.79055" fill="white"/>
<circle cx="88.1698" cy="18.5525" r="1.79055" fill="white"/>
<path d="M12.789 83.0557C11.7823 83.5959 10.7756 83.7923 9.69524 83.7923C6.40504 83.7923 4.12154 81.5088 4.12154 78.2923C4.12154 75.0266 6.40504 72.7922 9.74434 72.7922C11.4877 72.7922 12.9363 73.4061 14.1886 74.732L16.7422 72.3748C15.0725 70.4351 12.568 69.4038 9.54792 69.4038C4.07243 69.4038 0.0947266 73.1114 0.0947266 78.2923C0.0947266 83.4731 4.07243 87.1807 9.47425 87.1807C11.9296 87.1807 14.5323 86.4196 16.423 84.9954V78.0222H12.789V83.0557Z" fill="white"/>
<path d="M33.8189 86.8861H37.993L30.3077 69.6985H26.3791L18.7184 86.8861H22.7943L24.3166 83.203H32.2966L33.8189 86.8861ZM25.5934 80.1829L28.3189 73.6025L31.0443 80.1829H25.5934Z" fill="white"/>
<path d="M54.0527 86.8861H58.2268L50.5415 69.6985H46.6129L38.9522 86.8861H43.0281L44.5504 83.203H52.5304L54.0527 86.8861ZM45.8272 80.1829L48.5527 73.6025L51.2781 80.1829H45.8272Z" fill="white"/>
<path d="M80.2423 86.8861L80.1932 69.6985H76.9276L70.5927 80.3793L64.1596 69.6985H60.8694V86.8861H64.6016V76.7945L69.6351 85.0691H71.4275L76.4856 76.5735L76.5102 86.8861H80.2423Z" fill="white"/>
<path d="M89.1327 83.6941V79.7164H97.1127V76.6226H89.1327V72.8904H98.1685V69.6985H85.1796V86.8861H98.4877V83.6941H89.1327Z" fill="white"/>
<path d="M106.072 86.8861H110.05V72.9395H115.55V69.6985H100.572V72.9395H106.072V86.8861Z" fill="white"/>
<path d="M118.55 86.8861H122.527V69.6985H118.55V86.8861Z" fill="white"/>
<path d="M127.466 86.8861H131.443V69.6985H127.466V86.8861Z" fill="white"/>
<path d="M155.755 86.8861L155.706 69.6985H152.44L146.105 80.3793L139.672 69.6985H136.382V86.8861H140.114V76.7945L145.147 85.0691H146.94L151.998 76.5735L152.023 86.8861H155.755Z" fill="white"/>
<path d="M164.645 83.6941V79.7164H172.625V76.6226H164.645V72.8904H173.681V69.6985H160.692V86.8861H174V83.6941H164.645Z" fill="white"/>
<mask id="path-9-outside-1_3_34" maskUnits="userSpaceOnUse" x="8.94592" y="95.0071" width="156" height="8" fill="black">
<rect fill="white" x="8.94592" y="95.0071" width="156" height="8"/>
<path d="M13.2568 102.448C14.1885 102.448 15.0208 102.131 15.5817 101.516L15.1565 101.091C14.6409 101.625 14.0076 101.851 13.2839 101.851C11.7551 101.851 10.6063 100.729 10.6063 99.2275C10.6063 97.7258 11.7551 96.6041 13.2839 96.6041C14.0076 96.6041 14.6409 96.8303 15.1565 97.355L15.5817 96.9298C15.0208 96.3146 14.1885 96.0071 13.2658 96.0071C11.3571 96.0071 9.94592 97.373 9.94592 99.2275C9.94592 101.082 11.3571 102.448 13.2568 102.448Z"/>
<path d="M20.0966 102.448C21.9963 102.448 23.4165 101.082 23.4165 99.2275C23.4165 97.373 21.9963 96.0071 20.0966 96.0071C18.1788 96.0071 16.7676 97.3821 16.7676 99.2275C16.7676 101.073 18.1788 102.448 20.0966 102.448ZM20.0966 101.851C18.5678 101.851 17.428 100.738 17.428 99.2275C17.428 97.7168 18.5678 96.6041 20.0966 96.6041C21.6163 96.6041 22.7471 97.7168 22.7471 99.2275C22.7471 100.738 21.6163 101.851 20.0966 101.851Z"/>
<path d="M30.0009 96.0614V101.2L25.9211 96.0614H25.3693V102.394H26.0387V97.2554L30.1094 102.394H30.6612V96.0614H30.0009Z"/>
<path d="M37.812 96.0614V101.2L33.7322 96.0614H33.1804V102.394H33.8498V97.2554L37.9205 102.394H38.4723V96.0614H37.812Z"/>
<path d="M41.6609 101.815V99.4627H44.9356V98.8928H41.6609V96.6403H45.3336V96.0614H40.9915V102.394H45.4693V101.815H41.6609Z"/>
<path d="M50.2098 102.448C51.1416 102.448 51.9738 102.131 52.5347 101.516L52.1095 101.091C51.5939 101.625 50.9606 101.851 50.237 101.851C48.7082 101.851 47.5593 100.729 47.5593 99.2275C47.5593 97.7258 48.7082 96.6041 50.237 96.6041C50.9606 96.6041 51.5939 96.8303 52.1095 97.355L52.5347 96.9298C51.9738 96.3146 51.1416 96.0071 50.2189 96.0071C48.3101 96.0071 46.8989 97.373 46.8989 99.2275C46.8989 101.082 48.3101 102.448 50.2098 102.448Z"/>
<path d="M55.5648 102.394H56.2342V96.6403H58.4595V96.0614H53.3394V96.6403H55.5648V102.394Z"/>
<path d="M70.8521 96.0614L68.9977 101.534L67.1342 96.0614H66.51L64.6194 101.507L62.792 96.0614H62.1045L64.2394 102.394H64.936L66.7995 96.9931L68.6539 102.394H69.3595L71.4944 96.0614H70.8521Z"/>
<path d="M73.1741 102.394H73.8435V96.0614H73.1741V102.394Z"/>
<path d="M77.5864 102.394H78.2558V96.6403H80.4811V96.0614H75.361V96.6403H77.5864V102.394Z"/>
<path d="M86.6345 96.0614V98.8837H82.6723V96.0614H82.0029V102.394H82.6723V99.4717H86.6345V102.394H87.2948V96.0614H86.6345Z"/>
<path d="M97.3378 96.0614H96.6684L94.4973 99.6165L92.3263 96.0614H91.6116L94.1445 100.204V102.394H94.8049V100.204L97.3378 96.0614Z"/>
<path d="M101.323 102.448C103.222 102.448 104.642 101.082 104.642 99.2275C104.642 97.373 103.222 96.0071 101.323 96.0071C99.4048 96.0071 97.9936 97.3821 97.9936 99.2275C97.9936 101.073 99.4048 102.448 101.323 102.448ZM101.323 101.851C99.7937 101.851 98.6539 100.738 98.6539 99.2275C98.6539 97.7168 99.7937 96.6041 101.323 96.6041C102.842 96.6041 103.973 97.7168 103.973 99.2275C103.973 100.738 102.842 101.851 101.323 101.851Z"/>
<path d="M109.146 102.448C110.765 102.448 111.742 101.507 111.742 99.6888V96.0614H111.091V99.6617C111.091 101.163 110.386 101.851 109.146 101.851C107.916 101.851 107.21 101.163 107.21 99.6617V96.0614H106.541V99.6888C106.541 101.507 107.527 102.448 109.146 102.448Z"/>
<path d="M119.269 102.394L117.722 100.223C118.645 99.924 119.169 99.2275 119.169 98.2324C119.169 96.8755 118.192 96.0614 116.582 96.0614H114.212V102.394H114.881V100.385H116.582C116.763 100.385 116.926 100.376 117.089 100.358L118.536 102.394H119.269ZM116.564 99.8155H114.881V96.6403H116.564C117.83 96.6403 118.5 97.2193 118.5 98.2324C118.5 99.2275 117.83 99.8155 116.564 99.8155Z"/>
<path d="M129.078 102.394L127.531 100.223C128.454 99.924 128.979 99.2275 128.979 98.2324C128.979 96.8755 128.002 96.0614 126.391 96.0614H124.021V102.394H124.691V100.385H126.391C126.572 100.385 126.735 100.376 126.898 100.358L128.345 102.394H129.078ZM126.373 99.8155H124.691V96.6403H126.373C127.64 96.6403 128.309 97.2193 128.309 98.2324C128.309 99.2275 127.64 99.8155 126.373 99.8155Z"/>
<path d="M131.68 101.815V99.4627H134.955V98.8928H131.68V96.6403H135.353V96.0614H131.011V102.394H135.489V101.815H131.68Z"/>
<path d="M142.246 102.394H142.951L140.057 96.0614H139.396L136.501 102.394H137.198L137.958 100.702H141.486L142.246 102.394ZM138.202 100.159L139.722 96.7579L141.242 100.159H138.202Z"/>
<path d="M144.451 102.394H148.667V101.815H145.12V96.0614H144.451V102.394Z"/>
<path d="M150.23 102.394H150.9V96.0614H150.23V102.394Z"/>
<path d="M154.643 102.394H155.312V96.6403H157.537V96.0614H152.417V96.6403H154.643V102.394Z"/>
<path d="M163.719 96.0614H163.05L160.878 99.6165L158.707 96.0614H157.993L160.526 100.204V102.394H161.186V100.204L163.719 96.0614Z"/>
</mask>
<path d="M13.2568 102.448C14.1885 102.448 15.0208 102.131 15.5817 101.516L15.1565 101.091C14.6409 101.625 14.0076 101.851 13.2839 101.851C11.7551 101.851 10.6063 100.729 10.6063 99.2275C10.6063 97.7258 11.7551 96.6041 13.2839 96.6041C14.0076 96.6041 14.6409 96.8303 15.1565 97.355L15.5817 96.9298C15.0208 96.3146 14.1885 96.0071 13.2658 96.0071C11.3571 96.0071 9.94592 97.373 9.94592 99.2275C9.94592 101.082 11.3571 102.448 13.2568 102.448Z" fill="white"/>
<path d="M20.0966 102.448C21.9963 102.448 23.4165 101.082 23.4165 99.2275C23.4165 97.373 21.9963 96.0071 20.0966 96.0071C18.1788 96.0071 16.7676 97.3821 16.7676 99.2275C16.7676 101.073 18.1788 102.448 20.0966 102.448ZM20.0966 101.851C18.5678 101.851 17.428 100.738 17.428 99.2275C17.428 97.7168 18.5678 96.6041 20.0966 96.6041C21.6163 96.6041 22.7471 97.7168 22.7471 99.2275C22.7471 100.738 21.6163 101.851 20.0966 101.851Z" fill="white"/>
<path d="M30.0009 96.0614V101.2L25.9211 96.0614H25.3693V102.394H26.0387V97.2554L30.1094 102.394H30.6612V96.0614H30.0009Z" fill="white"/>
<path d="M37.812 96.0614V101.2L33.7322 96.0614H33.1804V102.394H33.8498V97.2554L37.9205 102.394H38.4723V96.0614H37.812Z" fill="white"/>
<path d="M41.6609 101.815V99.4627H44.9356V98.8928H41.6609V96.6403H45.3336V96.0614H40.9915V102.394H45.4693V101.815H41.6609Z" fill="white"/>
<path d="M50.2098 102.448C51.1416 102.448 51.9738 102.131 52.5347 101.516L52.1095 101.091C51.5939 101.625 50.9606 101.851 50.237 101.851C48.7082 101.851 47.5593 100.729 47.5593 99.2275C47.5593 97.7258 48.7082 96.6041 50.237 96.6041C50.9606 96.6041 51.5939 96.8303 52.1095 97.355L52.5347 96.9298C51.9738 96.3146 51.1416 96.0071 50.2189 96.0071C48.3101 96.0071 46.8989 97.373 46.8989 99.2275C46.8989 101.082 48.3101 102.448 50.2098 102.448Z" fill="white"/>
<path d="M55.5648 102.394H56.2342V96.6403H58.4595V96.0614H53.3394V96.6403H55.5648V102.394Z" fill="white"/>
<path d="M70.8521 96.0614L68.9977 101.534L67.1342 96.0614H66.51L64.6194 101.507L62.792 96.0614H62.1045L64.2394 102.394H64.936L66.7995 96.9931L68.6539 102.394H69.3595L71.4944 96.0614H70.8521Z" fill="white"/>
<path d="M73.1741 102.394H73.8435V96.0614H73.1741V102.394Z" fill="white"/>
<path d="M77.5864 102.394H78.2558V96.6403H80.4811V96.0614H75.361V96.6403H77.5864V102.394Z" fill="white"/>
<path d="M86.6345 96.0614V98.8837H82.6723V96.0614H82.0029V102.394H82.6723V99.4717H86.6345V102.394H87.2948V96.0614H86.6345Z" fill="white"/>
<path d="M97.3378 96.0614H96.6684L94.4973 99.6165L92.3263 96.0614H91.6116L94.1445 100.204V102.394H94.8049V100.204L97.3378 96.0614Z" fill="white"/>
<path d="M101.323 102.448C103.222 102.448 104.642 101.082 104.642 99.2275C104.642 97.373 103.222 96.0071 101.323 96.0071C99.4048 96.0071 97.9936 97.3821 97.9936 99.2275C97.9936 101.073 99.4048 102.448 101.323 102.448ZM101.323 101.851C99.7937 101.851 98.6539 100.738 98.6539 99.2275C98.6539 97.7168 99.7937 96.6041 101.323 96.6041C102.842 96.6041 103.973 97.7168 103.973 99.2275C103.973 100.738 102.842 101.851 101.323 101.851Z" fill="white"/>
<path d="M109.146 102.448C110.765 102.448 111.742 101.507 111.742 99.6888V96.0614H111.091V99.6617C111.091 101.163 110.386 101.851 109.146 101.851C107.916 101.851 107.21 101.163 107.21 99.6617V96.0614H106.541V99.6888C106.541 101.507 107.527 102.448 109.146 102.448Z" fill="white"/>
<path d="M119.269 102.394L117.722 100.223C118.645 99.924 119.169 99.2275 119.169 98.2324C119.169 96.8755 118.192 96.0614 116.582 96.0614H114.212V102.394H114.881V100.385H116.582C116.763 100.385 116.926 100.376 117.089 100.358L118.536 102.394H119.269ZM116.564 99.8155H114.881V96.6403H116.564C117.83 96.6403 118.5 97.2193 118.5 98.2324C118.5 99.2275 117.83 99.8155 116.564 99.8155Z" fill="white"/>
<path d="M129.078 102.394L127.531 100.223C128.454 99.924 128.979 99.2275 128.979 98.2324C128.979 96.8755 128.002 96.0614 126.391 96.0614H124.021V102.394H124.691V100.385H126.391C126.572 100.385 126.735 100.376 126.898 100.358L128.345 102.394H129.078ZM126.373 99.8155H124.691V96.6403H126.373C127.64 96.6403 128.309 97.2193 128.309 98.2324C128.309 99.2275 127.64 99.8155 126.373 99.8155Z" fill="white"/>
<path d="M131.68 101.815V99.4627H134.955V98.8928H131.68V96.6403H135.353V96.0614H131.011V102.394H135.489V101.815H131.68Z" fill="white"/>
<path d="M142.246 102.394H142.951L140.057 96.0614H139.396L136.501 102.394H137.198L137.958 100.702H141.486L142.246 102.394ZM138.202 100.159L139.722 96.7579L141.242 100.159H138.202Z" fill="white"/>
<path d="M144.451 102.394H148.667V101.815H145.12V96.0614H144.451V102.394Z" fill="white"/>
<path d="M150.23 102.394H150.9V96.0614H150.23V102.394Z" fill="white"/>
<path d="M154.643 102.394H155.312V96.6403H157.537V96.0614H152.417V96.6403H154.643V102.394Z" fill="white"/>
<path d="M163.719 96.0614H163.05L160.878 99.6165L158.707 96.0614H157.993L160.526 100.204V102.394H161.186V100.204L163.719 96.0614Z" fill="white"/>
<path d="M13.2568 102.448C14.1885 102.448 15.0208 102.131 15.5817 101.516L15.1565 101.091C14.6409 101.625 14.0076 101.851 13.2839 101.851C11.7551 101.851 10.6063 100.729 10.6063 99.2275C10.6063 97.7258 11.7551 96.6041 13.2839 96.6041C14.0076 96.6041 14.6409 96.8303 15.1565 97.355L15.5817 96.9298C15.0208 96.3146 14.1885 96.0071 13.2658 96.0071C11.3571 96.0071 9.94592 97.373 9.94592 99.2275C9.94592 101.082 11.3571 102.448 13.2568 102.448Z" stroke="white" stroke-width="0.6" mask="url(#path-9-outside-1_3_34)"/>
<path d="M20.0966 102.448C21.9963 102.448 23.4165 101.082 23.4165 99.2275C23.4165 97.373 21.9963 96.0071 20.0966 96.0071C18.1788 96.0071 16.7676 97.3821 16.7676 99.2275C16.7676 101.073 18.1788 102.448 20.0966 102.448ZM20.0966 101.851C18.5678 101.851 17.428 100.738 17.428 99.2275C17.428 97.7168 18.5678 96.6041 20.0966 96.6041C21.6163 96.6041 22.7471 97.7168 22.7471 99.2275C22.7471 100.738 21.6163 101.851 20.0966 101.851Z" stroke="white" stroke-width="0.6" mask="url(#path-9-outside-1_3_34)"/>
<path d="M30.0009 96.0614V101.2L25.9211 96.0614H25.3693V102.394H26.0387V97.2554L30.1094 102.394H30.6612V96.0614H30.0009Z" stroke="white" stroke-width="0.6" mask="url(#path-9-outside-1_3_34)"/>
<path d="M37.812 96.0614V101.2L33.7322 96.0614H33.1804V102.394H33.8498V97.2554L37.9205 102.394H38.4723V96.0614H37.812Z" stroke="white" stroke-width="0.6" mask="url(#path-9-outside-1_3_34)"/>
<path d="M41.6609 101.815V99.4627H44.9356V98.8928H41.6609V96.6403H45.3336V96.0614H40.9915V102.394H45.4693V101.815H41.6609Z" stroke="white" stroke-width="0.6" mask="url(#path-9-outside-1_3_34)"/>
<path d="M50.2098 102.448C51.1416 102.448 51.9738 102.131 52.5347 101.516L52.1095 101.091C51.5939 101.625 50.9606 101.851 50.237 101.851C48.7082 101.851 47.5593 100.729 47.5593 99.2275C47.5593 97.7258 48.7082 96.6041 50.237 96.6041C50.9606 96.6041 51.5939 96.8303 52.1095 97.355L52.5347 96.9298C51.9738 96.3146 51.1416 96.0071 50.2189 96.0071C48.3101 96.0071 46.8989 97.373 46.8989 99.2275C46.8989 101.082 48.3101 102.448 50.2098 102.448Z" stroke="white" stroke-width="0.6" mask="url(#path-9-outside-1_3_34)"/>
<path d="M55.5648 102.394H56.2342V96.6403H58.4595V96.0614H53.3394V96.6403H55.5648V102.394Z" stroke="white" stroke-width="0.6" mask="url(#path-9-outside-1_3_34)"/>
<path d="M70.8521 96.0614L68.9977 101.534L67.1342 96.0614H66.51L64.6194 101.507L62.792 96.0614H62.1045L64.2394 102.394H64.936L66.7995 96.9931L68.6539 102.394H69.3595L71.4944 96.0614H70.8521Z" stroke="white" stroke-width="0.6" mask="url(#path-9-outside-1_3_34)"/>
<path d="M73.1741 102.394H73.8435V96.0614H73.1741V102.394Z" stroke="white" stroke-width="0.6" mask="url(#path-9-outside-1_3_34)"/>
<path d="M77.5864 102.394H78.2558V96.6403H80.4811V96.0614H75.361V96.6403H77.5864V102.394Z" stroke="white" stroke-width="0.6" mask="url(#path-9-outside-1_3_34)"/>
<path d="M86.6345 96.0614V98.8837H82.6723V96.0614H82.0029V102.394H82.6723V99.4717H86.6345V102.394H87.2948V96.0614H86.6345Z" stroke="white" stroke-width="0.6" mask="url(#path-9-outside-1_3_34)"/>
<path d="M97.3378 96.0614H96.6684L94.4973 99.6165L92.3263 96.0614H91.6116L94.1445 100.204V102.394H94.8049V100.204L97.3378 96.0614Z" stroke="white" stroke-width="0.6" mask="url(#path-9-outside-1_3_34)"/>
<path d="M101.323 102.448C103.222 102.448 104.642 101.082 104.642 99.2275C104.642 97.373 103.222 96.0071 101.323 96.0071C99.4048 96.0071 97.9936 97.3821 97.9936 99.2275C97.9936 101.073 99.4048 102.448 101.323 102.448ZM101.323 101.851C99.7937 101.851 98.6539 100.738 98.6539 99.2275C98.6539 97.7168 99.7937 96.6041 101.323 96.6041C102.842 96.6041 103.973 97.7168 103.973 99.2275C103.973 100.738 102.842 101.851 101.323 101.851Z" stroke="white" stroke-width="0.6" mask="url(#path-9-outside-1_3_34)"/>
<path d="M109.146 102.448C110.765 102.448 111.742 101.507 111.742 99.6888V96.0614H111.091V99.6617C111.091 101.163 110.386 101.851 109.146 101.851C107.916 101.851 107.21 101.163 107.21 99.6617V96.0614H106.541V99.6888C106.541 101.507 107.527 102.448 109.146 102.448Z" stroke="white" stroke-width="0.6" mask="url(#path-9-outside-1_3_34)"/>
<path d="M119.269 102.394L117.722 100.223C118.645 99.924 119.169 99.2275 119.169 98.2324C119.169 96.8755 118.192 96.0614 116.582 96.0614H114.212V102.394H114.881V100.385H116.582C116.763 100.385 116.926 100.376 117.089 100.358L118.536 102.394H119.269ZM116.564 99.8155H114.881V96.6403H116.564C117.83 96.6403 118.5 97.2193 118.5 98.2324C118.5 99.2275 117.83 99.8155 116.564 99.8155Z" stroke="white" stroke-width="0.6" mask="url(#path-9-outside-1_3_34)"/>
<path d="M129.078 102.394L127.531 100.223C128.454 99.924 128.979 99.2275 128.979 98.2324C128.979 96.8755 128.002 96.0614 126.391 96.0614H124.021V102.394H124.691V100.385H126.391C126.572 100.385 126.735 100.376 126.898 100.358L128.345 102.394H129.078ZM126.373 99.8155H124.691V96.6403H126.373C127.64 96.6403 128.309 97.2193 128.309 98.2324C128.309 99.2275 127.64 99.8155 126.373 99.8155Z" stroke="white" stroke-width="0.6" mask="url(#path-9-outside-1_3_34)"/>
<path d="M131.68 101.815V99.4627H134.955V98.8928H131.68V96.6403H135.353V96.0614H131.011V102.394H135.489V101.815H131.68Z" stroke="white" stroke-width="0.6" mask="url(#path-9-outside-1_3_34)"/>
<path d="M142.246 102.394H142.951L140.057 96.0614H139.396L136.501 102.394H137.198L137.958 100.702H141.486L142.246 102.394ZM138.202 100.159L139.722 96.7579L141.242 100.159H138.202Z" stroke="white" stroke-width="0.6" mask="url(#path-9-outside-1_3_34)"/>
<path d="M144.451 102.394H148.667V101.815H145.12V96.0614H144.451V102.394Z" stroke="white" stroke-width="0.6" mask="url(#path-9-outside-1_3_34)"/>
<path d="M150.23 102.394H150.9V96.0614H150.23V102.394Z" stroke="white" stroke-width="0.6" mask="url(#path-9-outside-1_3_34)"/>
<path d="M154.643 102.394H155.312V96.6403H157.537V96.0614H152.417V96.6403H154.643V102.394Z" stroke="white" stroke-width="0.6" mask="url(#path-9-outside-1_3_34)"/>
<path d="M163.719 96.0614H163.05L160.878 99.6165L158.707 96.0614H157.993L160.526 100.204V102.394H161.186V100.204L163.719 96.0614Z" stroke="white" stroke-width="0.6" mask="url(#path-9-outside-1_3_34)"/>
</svg>
