<svg width="375" height="812" viewBox="0 0 375 812" fill="none" xmlns="http://www.w3.org/2000/svg">
<g clip-path="url(#clip0_1_3)">
<rect width="375" height="812" fill="url(#paint0_linear_1_3)"/>
<path d="M168.046 274.594H196.643C201.137 274.594 204.814 278.289 204.814 282.805V299.636C204.814 304.151 201.137 307.846 196.643 307.846H180.506L169.272 317.699V307.846H165.595C162.327 307.846 159.875 305.383 159.875 302.304V282.805C159.875 278.289 163.552 274.594 168.046 274.594Z" stroke="white" stroke-width="3" stroke-linecap="round" stroke-linejoin="round"/>
<path d="M178.218 312.057C178.218 314.352 180.042 316.229 182.272 316.438L196.261 316.855L207.411 326.87V316.855H211.06C214.101 316.855 216.737 314.352 216.737 311.014V291.193C216.737 286.604 213.087 282.848 208.627 282.848H204.94" stroke="white" stroke-width="3" stroke-linecap="round" stroke-linejoin="round"/>
<path d="M173.362 289.084H175.917C176.98 289.084 177.841 289.945 177.841 291.008V291.008C177.841 292.071 176.98 292.933 175.917 292.933H173.362V296.071C173.362 297.214 172.436 298.14 171.293 298.14V298.14C170.151 298.14 169.225 297.214 169.225 296.071V292.933H166.657C165.594 292.933 164.733 292.071 164.733 291.008V291.008C164.733 289.945 165.594 289.084 166.657 289.084H169.225V286.092C169.225 284.949 170.151 284.023 171.293 284.023V284.023C172.436 284.023 173.362 284.949 173.362 286.092V289.084Z" fill="white"/>
<circle cx="192.825" cy="285.465" r="1.79055" fill="white"/>
<circle cx="192.586" cy="297.158" r="1.79055" fill="white"/>
<circle cx="197.481" cy="291.553" r="1.79055" fill="white"/>
<circle cx="188.17" cy="291.553" r="1.79055" fill="white"/>
<path d="M112.789 356.056C111.782 356.596 110.776 356.792 109.695 356.792C106.405 356.792 104.122 354.509 104.122 351.292C104.122 348.027 106.405 345.792 109.744 345.792C111.488 345.792 112.936 346.406 114.189 347.732L116.742 345.375C115.073 343.435 112.568 342.404 109.548 342.404C104.072 342.404 100.095 346.111 100.095 351.292C100.095 356.473 104.072 360.181 109.474 360.181C111.93 360.181 114.532 359.42 116.423 357.995V351.022H112.789V356.056Z" fill="white"/>
<path d="M133.819 359.886H137.993L130.308 342.698H126.379L118.718 359.886H122.794L124.317 356.203H132.297L133.819 359.886ZM125.593 353.183L128.319 346.602L131.044 353.183H125.593Z" fill="white"/>
<path d="M154.053 359.886H158.227L150.542 342.698H146.613L138.952 359.886H143.028L144.55 356.203H152.53L154.053 359.886ZM145.827 353.183L148.553 346.602L151.278 353.183H145.827Z" fill="white"/>
<path d="M180.242 359.886L180.193 342.698H176.928L170.593 353.379L164.16 342.698H160.869V359.886H164.602V349.794L169.635 358.069H171.428L176.486 349.573L176.51 359.886H180.242Z" fill="white"/>
<path d="M189.133 356.694V352.716H197.113V349.623H189.133V345.89H198.168V342.698H185.18V359.886H198.488V356.694H189.133Z" fill="white"/>
<path d="M206.072 359.886H210.05V345.94H215.55V342.698H200.572V345.94H206.072V359.886Z" fill="white"/>
<path d="M218.55 359.886H222.527V342.698H218.55V359.886Z" fill="white"/>
<path d="M227.466 359.886H231.443V342.698H227.466V359.886Z" fill="white"/>
<path d="M255.755 359.886L255.706 342.698H252.44L246.105 353.379L239.672 342.698H236.382V359.886H240.114V349.794L245.147 358.069H246.94L251.998 349.573L252.023 359.886H255.755Z" fill="white"/>
<path d="M264.645 356.694V352.716H272.625V349.623H264.645V345.89H273.681V342.698H260.692V359.886H274V356.694H264.645Z" fill="white"/>
<mask id="path-9-outside-1_1_3" maskUnits="userSpaceOnUse" x="108.946" y="368.007" width="156" height="8" fill="black">
<rect fill="white" x="108.946" y="368.007" width="156" height="8"/>
<path d="M113.257 375.448C114.189 375.448 115.021 375.131 115.582 374.516L115.156 374.091C114.641 374.625 114.008 374.851 113.284 374.851C111.755 374.851 110.606 373.729 110.606 372.228C110.606 370.726 111.755 369.604 113.284 369.604C114.008 369.604 114.641 369.83 115.156 370.355L115.582 369.93C115.021 369.315 114.189 369.007 113.266 369.007C111.357 369.007 109.946 370.373 109.946 372.228C109.946 374.082 111.357 375.448 113.257 375.448Z"/>
<path d="M120.097 375.448C121.996 375.448 123.417 374.082 123.417 372.228C123.417 370.373 121.996 369.007 120.097 369.007C118.179 369.007 116.768 370.382 116.768 372.228C116.768 374.073 118.179 375.448 120.097 375.448ZM120.097 374.851C118.568 374.851 117.428 373.738 117.428 372.228C117.428 370.717 118.568 369.604 120.097 369.604C121.616 369.604 122.747 370.717 122.747 372.228C122.747 373.738 121.616 374.851 120.097 374.851Z"/>
<path d="M130.001 369.061V374.2L125.921 369.061H125.369V375.394H126.039V370.255L130.109 375.394H130.661V369.061H130.001Z"/>
<path d="M137.812 369.061V374.2L133.732 369.061H133.18V375.394H133.85V370.255L137.921 375.394H138.472V369.061H137.812Z"/>
<path d="M141.661 374.815V372.463H144.936V371.893H141.661V369.64H145.334V369.061H140.991V375.394H145.469V374.815H141.661Z"/>
<path d="M150.21 375.448C151.142 375.448 151.974 375.131 152.535 374.516L152.11 374.091C151.594 374.625 150.961 374.851 150.237 374.851C148.708 374.851 147.559 373.729 147.559 372.228C147.559 370.726 148.708 369.604 150.237 369.604C150.961 369.604 151.594 369.83 152.11 370.355L152.535 369.93C151.974 369.315 151.142 369.007 150.219 369.007C148.31 369.007 146.899 370.373 146.899 372.228C146.899 374.082 148.31 375.448 150.21 375.448Z"/>
<path d="M155.565 375.394H156.234V369.64H158.46V369.061H153.339V369.64H155.565V375.394Z"/>
<path d="M170.852 369.061L168.998 374.534L167.134 369.061H166.51L164.619 374.507L162.792 369.061H162.105L164.239 375.394H164.936L166.799 369.993L168.654 375.394H169.36L171.494 369.061H170.852Z"/>
<path d="M173.174 375.394H173.844V369.061H173.174V375.394Z"/>
<path d="M177.586 375.394H178.256V369.64H180.481V369.061H175.361V369.64H177.586V375.394Z"/>
<path d="M186.634 369.061V371.884H182.672V369.061H182.003V375.394H182.672V372.472H186.634V375.394H187.295V369.061H186.634Z"/>
<path d="M197.338 369.061H196.668L194.497 372.617L192.326 369.061H191.612L194.145 373.205V375.394H194.805V373.205L197.338 369.061Z"/>
<path d="M201.323 375.448C203.222 375.448 204.642 374.082 204.642 372.228C204.642 370.373 203.222 369.007 201.323 369.007C199.405 369.007 197.994 370.382 197.994 372.228C197.994 374.073 199.405 375.448 201.323 375.448ZM201.323 374.851C199.794 374.851 198.654 373.738 198.654 372.228C198.654 370.717 199.794 369.604 201.323 369.604C202.842 369.604 203.973 370.717 203.973 372.228C203.973 373.738 202.842 374.851 201.323 374.851Z"/>
<path d="M209.146 375.448C210.765 375.448 211.742 374.507 211.742 372.689V369.061H211.091V372.662C211.091 374.163 210.386 374.851 209.146 374.851C207.916 374.851 207.21 374.163 207.21 372.662V369.061H206.541V372.689C206.541 374.507 207.527 375.448 209.146 375.448Z"/>
<path d="M219.269 375.394L217.722 373.223C218.645 372.924 219.169 372.228 219.169 371.232C219.169 369.876 218.192 369.061 216.582 369.061H214.212V375.394H214.881V373.385H216.582C216.763 373.385 216.926 373.376 217.089 373.358L218.536 375.394H219.269ZM216.564 372.816H214.881V369.64H216.564C217.83 369.64 218.5 370.219 218.5 371.232C218.5 372.228 217.83 372.816 216.564 372.816Z"/>
<path d="M229.078 375.394L227.531 373.223C228.454 372.924 228.979 372.228 228.979 371.232C228.979 369.876 228.002 369.061 226.391 369.061H224.021V375.394H224.691V373.385H226.391C226.572 373.385 226.735 373.376 226.898 373.358L228.345 375.394H229.078ZM226.373 372.816H224.691V369.64H226.373C227.64 369.64 228.309 370.219 228.309 371.232C228.309 372.228 227.64 372.816 226.373 372.816Z"/>
<path d="M231.68 374.815V372.463H234.955V371.893H231.68V369.64H235.353V369.061H231.011V375.394H235.489V374.815H231.68Z"/>
<path d="M242.246 375.394H242.951L240.057 369.061H239.396L236.501 375.394H237.198L237.958 373.702H241.486L242.246 375.394ZM238.202 373.159L239.722 369.758L241.242 373.159H238.202Z"/>
<path d="M244.451 375.394H248.667V374.815H245.121V369.061H244.451V375.394Z"/>
<path d="M250.23 375.394H250.9V369.061H250.23V375.394Z"/>
<path d="M254.643 375.394H255.312V369.64H257.537V369.061H252.417V369.64H254.643V375.394Z"/>
<path d="M263.719 369.061H263.05L260.878 372.617L258.707 369.061H257.993L260.526 373.205V375.394H261.186V373.205L263.719 369.061Z"/>
</mask>
<path d="M113.257 375.448C114.189 375.448 115.021 375.131 115.582 374.516L115.156 374.091C114.641 374.625 114.008 374.851 113.284 374.851C111.755 374.851 110.606 373.729 110.606 372.228C110.606 370.726 111.755 369.604 113.284 369.604C114.008 369.604 114.641 369.83 115.156 370.355L115.582 369.93C115.021 369.315 114.189 369.007 113.266 369.007C111.357 369.007 109.946 370.373 109.946 372.228C109.946 374.082 111.357 375.448 113.257 375.448Z" fill="white"/>
<path d="M120.097 375.448C121.996 375.448 123.417 374.082 123.417 372.228C123.417 370.373 121.996 369.007 120.097 369.007C118.179 369.007 116.768 370.382 116.768 372.228C116.768 374.073 118.179 375.448 120.097 375.448ZM120.097 374.851C118.568 374.851 117.428 373.738 117.428 372.228C117.428 370.717 118.568 369.604 120.097 369.604C121.616 369.604 122.747 370.717 122.747 372.228C122.747 373.738 121.616 374.851 120.097 374.851Z" fill="white"/>
<path d="M130.001 369.061V374.2L125.921 369.061H125.369V375.394H126.039V370.255L130.109 375.394H130.661V369.061H130.001Z" fill="white"/>
<path d="M137.812 369.061V374.2L133.732 369.061H133.18V375.394H133.85V370.255L137.921 375.394H138.472V369.061H137.812Z" fill="white"/>
<path d="M141.661 374.815V372.463H144.936V371.893H141.661V369.64H145.334V369.061H140.991V375.394H145.469V374.815H141.661Z" fill="white"/>
<path d="M150.21 375.448C151.142 375.448 151.974 375.131 152.535 374.516L152.11 374.091C151.594 374.625 150.961 374.851 150.237 374.851C148.708 374.851 147.559 373.729 147.559 372.228C147.559 370.726 148.708 369.604 150.237 369.604C150.961 369.604 151.594 369.83 152.11 370.355L152.535 369.93C151.974 369.315 151.142 369.007 150.219 369.007C148.31 369.007 146.899 370.373 146.899 372.228C146.899 374.082 148.31 375.448 150.21 375.448Z" fill="white"/>
<path d="M155.565 375.394H156.234V369.64H158.46V369.061H153.339V369.64H155.565V375.394Z" fill="white"/>
<path d="M170.852 369.061L168.998 374.534L167.134 369.061H166.51L164.619 374.507L162.792 369.061H162.105L164.239 375.394H164.936L166.799 369.993L168.654 375.394H169.36L171.494 369.061H170.852Z" fill="white"/>
<path d="M173.174 375.394H173.844V369.061H173.174V375.394Z" fill="white"/>
<path d="M177.586 375.394H178.256V369.64H180.481V369.061H175.361V369.64H177.586V375.394Z" fill="white"/>
<path d="M186.634 369.061V371.884H182.672V369.061H182.003V375.394H182.672V372.472H186.634V375.394H187.295V369.061H186.634Z" fill="white"/>
<path d="M197.338 369.061H196.668L194.497 372.617L192.326 369.061H191.612L194.145 373.205V375.394H194.805V373.205L197.338 369.061Z" fill="white"/>
<path d="M201.323 375.448C203.222 375.448 204.642 374.082 204.642 372.228C204.642 370.373 203.222 369.007 201.323 369.007C199.405 369.007 197.994 370.382 197.994 372.228C197.994 374.073 199.405 375.448 201.323 375.448ZM201.323 374.851C199.794 374.851 198.654 373.738 198.654 372.228C198.654 370.717 199.794 369.604 201.323 369.604C202.842 369.604 203.973 370.717 203.973 372.228C203.973 373.738 202.842 374.851 201.323 374.851Z" fill="white"/>
<path d="M209.146 375.448C210.765 375.448 211.742 374.507 211.742 372.689V369.061H211.091V372.662C211.091 374.163 210.386 374.851 209.146 374.851C207.916 374.851 207.21 374.163 207.21 372.662V369.061H206.541V372.689C206.541 374.507 207.527 375.448 209.146 375.448Z" fill="white"/>
<path d="M219.269 375.394L217.722 373.223C218.645 372.924 219.169 372.228 219.169 371.232C219.169 369.876 218.192 369.061 216.582 369.061H214.212V375.394H214.881V373.385H216.582C216.763 373.385 216.926 373.376 217.089 373.358L218.536 375.394H219.269ZM216.564 372.816H214.881V369.64H216.564C217.83 369.64 218.5 370.219 218.5 371.232C218.5 372.228 217.83 372.816 216.564 372.816Z" fill="white"/>
<path d="M229.078 375.394L227.531 373.223C228.454 372.924 228.979 372.228 228.979 371.232C228.979 369.876 228.002 369.061 226.391 369.061H224.021V375.394H224.691V373.385H226.391C226.572 373.385 226.735 373.376 226.898 373.358L228.345 375.394H229.078ZM226.373 372.816H224.691V369.64H226.373C227.64 369.64 228.309 370.219 228.309 371.232C228.309 372.228 227.64 372.816 226.373 372.816Z" fill="white"/>
<path d="M231.68 374.815V372.463H234.955V371.893H231.68V369.64H235.353V369.061H231.011V375.394H235.489V374.815H231.68Z" fill="white"/>
<path d="M242.246 375.394H242.951L240.057 369.061H239.396L236.501 375.394H237.198L237.958 373.702H241.486L242.246 375.394ZM238.202 373.159L239.722 369.758L241.242 373.159H238.202Z" fill="white"/>
<path d="M244.451 375.394H248.667V374.815H245.121V369.061H244.451V375.394Z" fill="white"/>
<path d="M250.23 375.394H250.9V369.061H250.23V375.394Z" fill="white"/>
<path d="M254.643 375.394H255.312V369.64H257.537V369.061H252.417V369.64H254.643V375.394Z" fill="white"/>
<path d="M263.719 369.061H263.05L260.878 372.617L258.707 369.061H257.993L260.526 373.205V375.394H261.186V373.205L263.719 369.061Z" fill="white"/>
<path d="M113.257 375.448C114.189 375.448 115.021 375.131 115.582 374.516L115.156 374.091C114.641 374.625 114.008 374.851 113.284 374.851C111.755 374.851 110.606 373.729 110.606 372.228C110.606 370.726 111.755 369.604 113.284 369.604C114.008 369.604 114.641 369.83 115.156 370.355L115.582 369.93C115.021 369.315 114.189 369.007 113.266 369.007C111.357 369.007 109.946 370.373 109.946 372.228C109.946 374.082 111.357 375.448 113.257 375.448Z" stroke="white" stroke-width="0.6" mask="url(#path-9-outside-1_1_3)"/>
<path d="M120.097 375.448C121.996 375.448 123.417 374.082 123.417 372.228C123.417 370.373 121.996 369.007 120.097 369.007C118.179 369.007 116.768 370.382 116.768 372.228C116.768 374.073 118.179 375.448 120.097 375.448ZM120.097 374.851C118.568 374.851 117.428 373.738 117.428 372.228C117.428 370.717 118.568 369.604 120.097 369.604C121.616 369.604 122.747 370.717 122.747 372.228C122.747 373.738 121.616 374.851 120.097 374.851Z" stroke="white" stroke-width="0.6" mask="url(#path-9-outside-1_1_3)"/>
<path d="M130.001 369.061V374.2L125.921 369.061H125.369V375.394H126.039V370.255L130.109 375.394H130.661V369.061H130.001Z" stroke="white" stroke-width="0.6" mask="url(#path-9-outside-1_1_3)"/>
<path d="M137.812 369.061V374.2L133.732 369.061H133.18V375.394H133.85V370.255L137.921 375.394H138.472V369.061H137.812Z" stroke="white" stroke-width="0.6" mask="url(#path-9-outside-1_1_3)"/>
<path d="M141.661 374.815V372.463H144.936V371.893H141.661V369.64H145.334V369.061H140.991V375.394H145.469V374.815H141.661Z" stroke="white" stroke-width="0.6" mask="url(#path-9-outside-1_1_3)"/>
<path d="M150.21 375.448C151.142 375.448 151.974 375.131 152.535 374.516L152.11 374.091C151.594 374.625 150.961 374.851 150.237 374.851C148.708 374.851 147.559 373.729 147.559 372.228C147.559 370.726 148.708 369.604 150.237 369.604C150.961 369.604 151.594 369.83 152.11 370.355L152.535 369.93C151.974 369.315 151.142 369.007 150.219 369.007C148.31 369.007 146.899 370.373 146.899 372.228C146.899 374.082 148.31 375.448 150.21 375.448Z" stroke="white" stroke-width="0.6" mask="url(#path-9-outside-1_1_3)"/>
<path d="M155.565 375.394H156.234V369.64H158.46V369.061H153.339V369.64H155.565V375.394Z" stroke="white" stroke-width="0.6" mask="url(#path-9-outside-1_1_3)"/>
<path d="M170.852 369.061L168.998 374.534L167.134 369.061H166.51L164.619 374.507L162.792 369.061H162.105L164.239 375.394H164.936L166.799 369.993L168.654 375.394H169.36L171.494 369.061H170.852Z" stroke="white" stroke-width="0.6" mask="url(#path-9-outside-1_1_3)"/>
<path d="M173.174 375.394H173.844V369.061H173.174V375.394Z" stroke="white" stroke-width="0.6" mask="url(#path-9-outside-1_1_3)"/>
<path d="M177.586 375.394H178.256V369.64H180.481V369.061H175.361V369.64H177.586V375.394Z" stroke="white" stroke-width="0.6" mask="url(#path-9-outside-1_1_3)"/>
<path d="M186.634 369.061V371.884H182.672V369.061H182.003V375.394H182.672V372.472H186.634V375.394H187.295V369.061H186.634Z" stroke="white" stroke-width="0.6" mask="url(#path-9-outside-1_1_3)"/>
<path d="M197.338 369.061H196.668L194.497 372.617L192.326 369.061H191.612L194.145 373.205V375.394H194.805V373.205L197.338 369.061Z" stroke="white" stroke-width="0.6" mask="url(#path-9-outside-1_1_3)"/>
<path d="M201.323 375.448C203.222 375.448 204.642 374.082 204.642 372.228C204.642 370.373 203.222 369.007 201.323 369.007C199.405 369.007 197.994 370.382 197.994 372.228C197.994 374.073 199.405 375.448 201.323 375.448ZM201.323 374.851C199.794 374.851 198.654 373.738 198.654 372.228C198.654 370.717 199.794 369.604 201.323 369.604C202.842 369.604 203.973 370.717 203.973 372.228C203.973 373.738 202.842 374.851 201.323 374.851Z" stroke="white" stroke-width="0.6" mask="url(#path-9-outside-1_1_3)"/>
<path d="M209.146 375.448C210.765 375.448 211.742 374.507 211.742 372.689V369.061H211.091V372.662C211.091 374.163 210.386 374.851 209.146 374.851C207.916 374.851 207.21 374.163 207.21 372.662V369.061H206.541V372.689C206.541 374.507 207.527 375.448 209.146 375.448Z" stroke="white" stroke-width="0.6" mask="url(#path-9-outside-1_1_3)"/>
<path d="M219.269 375.394L217.722 373.223C218.645 372.924 219.169 372.228 219.169 371.232C219.169 369.876 218.192 369.061 216.582 369.061H214.212V375.394H214.881V373.385H216.582C216.763 373.385 216.926 373.376 217.089 373.358L218.536 375.394H219.269ZM216.564 372.816H214.881V369.64H216.564C217.83 369.64 218.5 370.219 218.5 371.232C218.5 372.228 217.83 372.816 216.564 372.816Z" stroke="white" stroke-width="0.6" mask="url(#path-9-outside-1_1_3)"/>
<path d="M229.078 375.394L227.531 373.223C228.454 372.924 228.979 372.228 228.979 371.232C228.979 369.876 228.002 369.061 226.391 369.061H224.021V375.394H224.691V373.385H226.391C226.572 373.385 226.735 373.376 226.898 373.358L228.345 375.394H229.078ZM226.373 372.816H224.691V369.64H226.373C227.64 369.64 228.309 370.219 228.309 371.232C228.309 372.228 227.64 372.816 226.373 372.816Z" stroke="white" stroke-width="0.6" mask="url(#path-9-outside-1_1_3)"/>
<path d="M231.68 374.815V372.463H234.955V371.893H231.68V369.64H235.353V369.061H231.011V375.394H235.489V374.815H231.68Z" stroke="white" stroke-width="0.6" mask="url(#path-9-outside-1_1_3)"/>
<path d="M242.246 375.394H242.951L240.057 369.061H239.396L236.501 375.394H237.198L237.958 373.702H241.486L242.246 375.394ZM238.202 373.159L239.722 369.758L241.242 373.159H238.202Z" stroke="white" stroke-width="0.6" mask="url(#path-9-outside-1_1_3)"/>
<path d="M244.451 375.394H248.667V374.815H245.121V369.061H244.451V375.394Z" stroke="white" stroke-width="0.6" mask="url(#path-9-outside-1_1_3)"/>
<path d="M250.23 375.394H250.9V369.061H250.23V375.394Z" stroke="white" stroke-width="0.6" mask="url(#path-9-outside-1_1_3)"/>
<path d="M254.643 375.394H255.312V369.64H257.537V369.061H252.417V369.64H254.643V375.394Z" stroke="white" stroke-width="0.6" mask="url(#path-9-outside-1_1_3)"/>
<path d="M263.719 369.061H263.05L260.878 372.617L258.707 369.061H257.993L260.526 373.205V375.394H261.186V373.205L263.719 369.061Z" stroke="white" stroke-width="0.6" mask="url(#path-9-outside-1_1_3)"/>
<path d="M168.046 274.594H196.643C201.137 274.594 204.814 278.289 204.814 282.805V299.636C204.814 304.151 201.137 307.846 196.643 307.846H180.506L169.272 317.699V307.846H165.595C162.327 307.846 159.875 305.383 159.875 302.304V282.805C159.875 278.289 163.552 274.594 168.046 274.594Z" stroke="white" stroke-width="3" stroke-linecap="round" stroke-linejoin="round"/>
<path d="M178.218 312.057C178.218 314.352 180.042 316.229 182.272 316.438L196.261 316.855L207.411 326.87V316.855H211.06C214.101 316.855 216.737 314.352 216.737 311.014V291.193C216.737 286.604 213.087 282.848 208.627 282.848H204.94" stroke="white" stroke-width="3" stroke-linecap="round" stroke-linejoin="round"/>
<path d="M173.362 289.084H175.917C176.98 289.084 177.841 289.945 177.841 291.008V291.008C177.841 292.071 176.98 292.933 175.917 292.933H173.362V296.071C173.362 297.214 172.436 298.14 171.293 298.14V298.14C170.151 298.14 169.225 297.214 169.225 296.071V292.933H166.657C165.594 292.933 164.733 292.071 164.733 291.008V291.008C164.733 289.945 165.594 289.084 166.657 289.084H169.225V286.092C169.225 284.949 170.151 284.023 171.293 284.023V284.023C172.436 284.023 173.362 284.949 173.362 286.092V289.084Z" fill="white"/>
<circle cx="192.825" cy="285.465" r="1.79055" fill="white"/>
<circle cx="192.586" cy="297.158" r="1.79055" fill="white"/>
<circle cx="197.481" cy="291.553" r="1.79055" fill="white"/>
<circle cx="188.17" cy="291.553" r="1.79055" fill="white"/>
<path d="M112.789 356.056C111.782 356.596 110.776 356.792 109.695 356.792C106.405 356.792 104.122 354.509 104.122 351.292C104.122 348.027 106.405 345.792 109.744 345.792C111.488 345.792 112.936 346.406 114.189 347.732L116.742 345.375C115.073 343.435 112.568 342.404 109.548 342.404C104.072 342.404 100.095 346.111 100.095 351.292C100.095 356.473 104.072 360.181 109.474 360.181C111.93 360.181 114.532 359.42 116.423 357.995V351.022H112.789V356.056Z" fill="white"/>
<path d="M133.819 359.886H137.993L130.308 342.698H126.379L118.718 359.886H122.794L124.317 356.203H132.297L133.819 359.886ZM125.593 353.183L128.319 346.602L131.044 353.183H125.593Z" fill="white"/>
<path d="M154.053 359.886H158.227L150.542 342.698H146.613L138.952 359.886H143.028L144.55 356.203H152.53L154.053 359.886ZM145.827 353.183L148.553 346.602L151.278 353.183H145.827Z" fill="white"/>
<path d="M180.242 359.886L180.193 342.698H176.928L170.593 353.379L164.16 342.698H160.869V359.886H164.602V349.794L169.635 358.069H171.428L176.486 349.573L176.51 359.886H180.242Z" fill="white"/>
<path d="M189.133 356.694V352.716H197.113V349.623H189.133V345.89H198.168V342.698H185.18V359.886H198.488V356.694H189.133Z" fill="white"/>
<path d="M206.072 359.886H210.05V345.94H215.55V342.698H200.572V345.94H206.072V359.886Z" fill="white"/>
<path d="M218.55 359.886H222.527V342.698H218.55V359.886Z" fill="white"/>
<path d="M227.466 359.886H231.443V342.698H227.466V359.886Z" fill="white"/>
<path d="M255.755 359.886L255.706 342.698H252.44L246.105 353.379L239.672 342.698H236.382V359.886H240.114V349.794L245.147 358.069H246.94L251.998 349.573L252.023 359.886H255.755Z" fill="white"/>
<path d="M264.645 356.694V352.716H272.625V349.623H264.645V345.89H273.681V342.698H260.692V359.886H274V356.694H264.645Z" fill="white"/>
<mask id="path-18-outside-2_1_3" maskUnits="userSpaceOnUse" x="108.946" y="368.007" width="156" height="8" fill="black">
<rect fill="white" x="108.946" y="368.007" width="156" height="8"/>
<path d="M113.257 375.448C114.189 375.448 115.021 375.131 115.582 374.516L115.156 374.091C114.641 374.625 114.008 374.851 113.284 374.851C111.755 374.851 110.606 373.729 110.606 372.228C110.606 370.726 111.755 369.604 113.284 369.604C114.008 369.604 114.641 369.83 115.156 370.355L115.582 369.93C115.021 369.315 114.189 369.007 113.266 369.007C111.357 369.007 109.946 370.373 109.946 372.228C109.946 374.082 111.357 375.448 113.257 375.448Z"/>
<path d="M120.097 375.448C121.996 375.448 123.417 374.082 123.417 372.228C123.417 370.373 121.996 369.007 120.097 369.007C118.179 369.007 116.768 370.382 116.768 372.228C116.768 374.073 118.179 375.448 120.097 375.448ZM120.097 374.851C118.568 374.851 117.428 373.738 117.428 372.228C117.428 370.717 118.568 369.604 120.097 369.604C121.616 369.604 122.747 370.717 122.747 372.228C122.747 373.738 121.616 374.851 120.097 374.851Z"/>
<path d="M130.001 369.061V374.2L125.921 369.061H125.369V375.394H126.039V370.255L130.109 375.394H130.661V369.061H130.001Z"/>
<path d="M137.812 369.061V374.2L133.732 369.061H133.18V375.394H133.85V370.255L137.921 375.394H138.472V369.061H137.812Z"/>
<path d="M141.661 374.815V372.463H144.936V371.893H141.661V369.64H145.334V369.061H140.991V375.394H145.469V374.815H141.661Z"/>
<path d="M150.21 375.448C151.142 375.448 151.974 375.131 152.535 374.516L152.11 374.091C151.594 374.625 150.961 374.851 150.237 374.851C148.708 374.851 147.559 373.729 147.559 372.228C147.559 370.726 148.708 369.604 150.237 369.604C150.961 369.604 151.594 369.83 152.11 370.355L152.535 369.93C151.974 369.315 151.142 369.007 150.219 369.007C148.31 369.007 146.899 370.373 146.899 372.228C146.899 374.082 148.31 375.448 150.21 375.448Z"/>
<path d="M155.565 375.394H156.234V369.64H158.46V369.061H153.339V369.64H155.565V375.394Z"/>
<path d="M170.852 369.061L168.998 374.534L167.134 369.061H166.51L164.619 374.507L162.792 369.061H162.105L164.239 375.394H164.936L166.799 369.993L168.654 375.394H169.36L171.494 369.061H170.852Z"/>
<path d="M173.174 375.394H173.844V369.061H173.174V375.394Z"/>
<path d="M177.586 375.394H178.256V369.64H180.481V369.061H175.361V369.64H177.586V375.394Z"/>
<path d="M186.634 369.061V371.884H182.672V369.061H182.003V375.394H182.672V372.472H186.634V375.394H187.295V369.061H186.634Z"/>
<path d="M197.338 369.061H196.668L194.497 372.617L192.326 369.061H191.612L194.145 373.205V375.394H194.805V373.205L197.338 369.061Z"/>
<path d="M201.323 375.448C203.222 375.448 204.642 374.082 204.642 372.228C204.642 370.373 203.222 369.007 201.323 369.007C199.405 369.007 197.994 370.382 197.994 372.228C197.994 374.073 199.405 375.448 201.323 375.448ZM201.323 374.851C199.794 374.851 198.654 373.738 198.654 372.228C198.654 370.717 199.794 369.604 201.323 369.604C202.842 369.604 203.973 370.717 203.973 372.228C203.973 373.738 202.842 374.851 201.323 374.851Z"/>
<path d="M209.146 375.448C210.765 375.448 211.742 374.507 211.742 372.689V369.061H211.091V372.662C211.091 374.163 210.386 374.851 209.146 374.851C207.916 374.851 207.21 374.163 207.21 372.662V369.061H206.541V372.689C206.541 374.507 207.527 375.448 209.146 375.448Z"/>
<path d="M219.269 375.394L217.722 373.223C218.645 372.924 219.169 372.228 219.169 371.232C219.169 369.876 218.192 369.061 216.582 369.061H214.212V375.394H214.881V373.385H216.582C216.763 373.385 216.926 373.376 217.089 373.358L218.536 375.394H219.269ZM216.564 372.816H214.881V369.64H216.564C217.83 369.64 218.5 370.219 218.5 371.232C218.5 372.228 217.83 372.816 216.564 372.816Z"/>
<path d="M229.078 375.394L227.531 373.223C228.454 372.924 228.979 372.228 228.979 371.232C228.979 369.876 228.002 369.061 226.391 369.061H224.021V375.394H224.691V373.385H226.391C226.572 373.385 226.735 373.376 226.898 373.358L228.345 375.394H229.078ZM226.373 372.816H224.691V369.64H226.373C227.64 369.64 228.309 370.219 228.309 371.232C228.309 372.228 227.64 372.816 226.373 372.816Z"/>
<path d="M231.68 374.815V372.463H234.955V371.893H231.68V369.64H235.353V369.061H231.011V375.394H235.489V374.815H231.68Z"/>
<path d="M242.246 375.394H242.951L240.057 369.061H239.396L236.501 375.394H237.198L237.958 373.702H241.486L242.246 375.394ZM238.202 373.159L239.722 369.758L241.242 373.159H238.202Z"/>
<path d="M244.451 375.394H248.667V374.815H245.121V369.061H244.451V375.394Z"/>
<path d="M250.23 375.394H250.9V369.061H250.23V375.394Z"/>
<path d="M254.643 375.394H255.312V369.64H257.537V369.061H252.417V369.64H254.643V375.394Z"/>
<path d="M263.719 369.061H263.05L260.878 372.617L258.707 369.061H257.993L260.526 373.205V375.394H261.186V373.205L263.719 369.061Z"/>
</mask>
<path d="M113.257 375.448C114.189 375.448 115.021 375.131 115.582 374.516L115.156 374.091C114.641 374.625 114.008 374.851 113.284 374.851C111.755 374.851 110.606 373.729 110.606 372.228C110.606 370.726 111.755 369.604 113.284 369.604C114.008 369.604 114.641 369.83 115.156 370.355L115.582 369.93C115.021 369.315 114.189 369.007 113.266 369.007C111.357 369.007 109.946 370.373 109.946 372.228C109.946 374.082 111.357 375.448 113.257 375.448Z" fill="white"/>
<path d="M120.097 375.448C121.996 375.448 123.417 374.082 123.417 372.228C123.417 370.373 121.996 369.007 120.097 369.007C118.179 369.007 116.768 370.382 116.768 372.228C116.768 374.073 118.179 375.448 120.097 375.448ZM120.097 374.851C118.568 374.851 117.428 373.738 117.428 372.228C117.428 370.717 118.568 369.604 120.097 369.604C121.616 369.604 122.747 370.717 122.747 372.228C122.747 373.738 121.616 374.851 120.097 374.851Z" fill="white"/>
<path d="M130.001 369.061V374.2L125.921 369.061H125.369V375.394H126.039V370.255L130.109 375.394H130.661V369.061H130.001Z" fill="white"/>
<path d="M137.812 369.061V374.2L133.732 369.061H133.18V375.394H133.85V370.255L137.921 375.394H138.472V369.061H137.812Z" fill="white"/>
<path d="M141.661 374.815V372.463H144.936V371.893H141.661V369.64H145.334V369.061H140.991V375.394H145.469V374.815H141.661Z" fill="white"/>
<path d="M150.21 375.448C151.142 375.448 151.974 375.131 152.535 374.516L152.11 374.091C151.594 374.625 150.961 374.851 150.237 374.851C148.708 374.851 147.559 373.729 147.559 372.228C147.559 370.726 148.708 369.604 150.237 369.604C150.961 369.604 151.594 369.83 152.11 370.355L152.535 369.93C151.974 369.315 151.142 369.007 150.219 369.007C148.31 369.007 146.899 370.373 146.899 372.228C146.899 374.082 148.31 375.448 150.21 375.448Z" fill="white"/>
<path d="M155.565 375.394H156.234V369.64H158.46V369.061H153.339V369.64H155.565V375.394Z" fill="white"/>
<path d="M170.852 369.061L168.998 374.534L167.134 369.061H166.51L164.619 374.507L162.792 369.061H162.105L164.239 375.394H164.936L166.799 369.993L168.654 375.394H169.36L171.494 369.061H170.852Z" fill="white"/>
<path d="M173.174 375.394H173.844V369.061H173.174V375.394Z" fill="white"/>
<path d="M177.586 375.394H178.256V369.64H180.481V369.061H175.361V369.64H177.586V375.394Z" fill="white"/>
<path d="M186.634 369.061V371.884H182.672V369.061H182.003V375.394H182.672V372.472H186.634V375.394H187.295V369.061H186.634Z" fill="white"/>
<path d="M197.338 369.061H196.668L194.497 372.617L192.326 369.061H191.612L194.145 373.205V375.394H194.805V373.205L197.338 369.061Z" fill="white"/>
<path d="M201.323 375.448C203.222 375.448 204.642 374.082 204.642 372.228C204.642 370.373 203.222 369.007 201.323 369.007C199.405 369.007 197.994 370.382 197.994 372.228C197.994 374.073 199.405 375.448 201.323 375.448ZM201.323 374.851C199.794 374.851 198.654 373.738 198.654 372.228C198.654 370.717 199.794 369.604 201.323 369.604C202.842 369.604 203.973 370.717 203.973 372.228C203.973 373.738 202.842 374.851 201.323 374.851Z" fill="white"/>
<path d="M209.146 375.448C210.765 375.448 211.742 374.507 211.742 372.689V369.061H211.091V372.662C211.091 374.163 210.386 374.851 209.146 374.851C207.916 374.851 207.21 374.163 207.21 372.662V369.061H206.541V372.689C206.541 374.507 207.527 375.448 209.146 375.448Z" fill="white"/>
<path d="M219.269 375.394L217.722 373.223C218.645 372.924 219.169 372.228 219.169 371.232C219.169 369.876 218.192 369.061 216.582 369.061H214.212V375.394H214.881V373.385H216.582C216.763 373.385 216.926 373.376 217.089 373.358L218.536 375.394H219.269ZM216.564 372.816H214.881V369.64H216.564C217.83 369.64 218.5 370.219 218.5 371.232C218.5 372.228 217.83 372.816 216.564 372.816Z" fill="white"/>
<path d="M229.078 375.394L227.531 373.223C228.454 372.924 228.979 372.228 228.979 371.232C228.979 369.876 228.002 369.061 226.391 369.061H224.021V375.394H224.691V373.385H226.391C226.572 373.385 226.735 373.376 226.898 373.358L228.345 375.394H229.078ZM226.373 372.816H224.691V369.64H226.373C227.64 369.64 228.309 370.219 228.309 371.232C228.309 372.228 227.64 372.816 226.373 372.816Z" fill="white"/>
<path d="M231.68 374.815V372.463H234.955V371.893H231.68V369.64H235.353V369.061H231.011V375.394H235.489V374.815H231.68Z" fill="white"/>
<path d="M242.246 375.394H242.951L240.057 369.061H239.396L236.501 375.394H237.198L237.958 373.702H241.486L242.246 375.394ZM238.202 373.159L239.722 369.758L241.242 373.159H238.202Z" fill="white"/>
<path d="M244.451 375.394H248.667V374.815H245.121V369.061H244.451V375.394Z" fill="white"/>
<path d="M250.23 375.394H250.9V369.061H250.23V375.394Z" fill="white"/>
<path d="M254.643 375.394H255.312V369.64H257.537V369.061H252.417V369.64H254.643V375.394Z" fill="white"/>
<path d="M263.719 369.061H263.05L260.878 372.617L258.707 369.061H257.993L260.526 373.205V375.394H261.186V373.205L263.719 369.061Z" fill="white"/>
<path d="M113.257 375.448C114.189 375.448 115.021 375.131 115.582 374.516L115.156 374.091C114.641 374.625 114.008 374.851 113.284 374.851C111.755 374.851 110.606 373.729 110.606 372.228C110.606 370.726 111.755 369.604 113.284 369.604C114.008 369.604 114.641 369.83 115.156 370.355L115.582 369.93C115.021 369.315 114.189 369.007 113.266 369.007C111.357 369.007 109.946 370.373 109.946 372.228C109.946 374.082 111.357 375.448 113.257 375.448Z" stroke="white" stroke-width="0.6" mask="url(#path-18-outside-2_1_3)"/>
<path d="M120.097 375.448C121.996 375.448 123.417 374.082 123.417 372.228C123.417 370.373 121.996 369.007 120.097 369.007C118.179 369.007 116.768 370.382 116.768 372.228C116.768 374.073 118.179 375.448 120.097 375.448ZM120.097 374.851C118.568 374.851 117.428 373.738 117.428 372.228C117.428 370.717 118.568 369.604 120.097 369.604C121.616 369.604 122.747 370.717 122.747 372.228C122.747 373.738 121.616 374.851 120.097 374.851Z" stroke="white" stroke-width="0.6" mask="url(#path-18-outside-2_1_3)"/>
<path d="M130.001 369.061V374.2L125.921 369.061H125.369V375.394H126.039V370.255L130.109 375.394H130.661V369.061H130.001Z" stroke="white" stroke-width="0.6" mask="url(#path-18-outside-2_1_3)"/>
<path d="M137.812 369.061V374.2L133.732 369.061H133.18V375.394H133.85V370.255L137.921 375.394H138.472V369.061H137.812Z" stroke="white" stroke-width="0.6" mask="url(#path-18-outside-2_1_3)"/>
<path d="M141.661 374.815V372.463H144.936V371.893H141.661V369.64H145.334V369.061H140.991V375.394H145.469V374.815H141.661Z" stroke="white" stroke-width="0.6" mask="url(#path-18-outside-2_1_3)"/>
<path d="M150.21 375.448C151.142 375.448 151.974 375.131 152.535 374.516L152.11 374.091C151.594 374.625 150.961 374.851 150.237 374.851C148.708 374.851 147.559 373.729 147.559 372.228C147.559 370.726 148.708 369.604 150.237 369.604C150.961 369.604 151.594 369.83 152.11 370.355L152.535 369.93C151.974 369.315 151.142 369.007 150.219 369.007C148.31 369.007 146.899 370.373 146.899 372.228C146.899 374.082 148.31 375.448 150.21 375.448Z" stroke="white" stroke-width="0.6" mask="url(#path-18-outside-2_1_3)"/>
<path d="M155.565 375.394H156.234V369.64H158.46V369.061H153.339V369.64H155.565V375.394Z" stroke="white" stroke-width="0.6" mask="url(#path-18-outside-2_1_3)"/>
<path d="M170.852 369.061L168.998 374.534L167.134 369.061H166.51L164.619 374.507L162.792 369.061H162.105L164.239 375.394H164.936L166.799 369.993L168.654 375.394H169.36L171.494 369.061H170.852Z" stroke="white" stroke-width="0.6" mask="url(#path-18-outside-2_1_3)"/>
<path d="M173.174 375.394H173.844V369.061H173.174V375.394Z" stroke="white" stroke-width="0.6" mask="url(#path-18-outside-2_1_3)"/>
<path d="M177.586 375.394H178.256V369.64H180.481V369.061H175.361V369.64H177.586V375.394Z" stroke="white" stroke-width="0.6" mask="url(#path-18-outside-2_1_3)"/>
<path d="M186.634 369.061V371.884H182.672V369.061H182.003V375.394H182.672V372.472H186.634V375.394H187.295V369.061H186.634Z" stroke="white" stroke-width="0.6" mask="url(#path-18-outside-2_1_3)"/>
<path d="M197.338 369.061H196.668L194.497 372.617L192.326 369.061H191.612L194.145 373.205V375.394H194.805V373.205L197.338 369.061Z" stroke="white" stroke-width="0.6" mask="url(#path-18-outside-2_1_3)"/>
<path d="M201.323 375.448C203.222 375.448 204.642 374.082 204.642 372.228C204.642 370.373 203.222 369.007 201.323 369.007C199.405 369.007 197.994 370.382 197.994 372.228C197.994 374.073 199.405 375.448 201.323 375.448ZM201.323 374.851C199.794 374.851 198.654 373.738 198.654 372.228C198.654 370.717 199.794 369.604 201.323 369.604C202.842 369.604 203.973 370.717 203.973 372.228C203.973 373.738 202.842 374.851 201.323 374.851Z" stroke="white" stroke-width="0.6" mask="url(#path-18-outside-2_1_3)"/>
<path d="M209.146 375.448C210.765 375.448 211.742 374.507 211.742 372.689V369.061H211.091V372.662C211.091 374.163 210.386 374.851 209.146 374.851C207.916 374.851 207.21 374.163 207.21 372.662V369.061H206.541V372.689C206.541 374.507 207.527 375.448 209.146 375.448Z" stroke="white" stroke-width="0.6" mask="url(#path-18-outside-2_1_3)"/>
<path d="M219.269 375.394L217.722 373.223C218.645 372.924 219.169 372.228 219.169 371.232C219.169 369.876 218.192 369.061 216.582 369.061H214.212V375.394H214.881V373.385H216.582C216.763 373.385 216.926 373.376 217.089 373.358L218.536 375.394H219.269ZM216.564 372.816H214.881V369.64H216.564C217.83 369.64 218.5 370.219 218.5 371.232C218.5 372.228 217.83 372.816 216.564 372.816Z" stroke="white" stroke-width="0.6" mask="url(#path-18-outside-2_1_3)"/>
<path d="M229.078 375.394L227.531 373.223C228.454 372.924 228.979 372.228 228.979 371.232C228.979 369.876 228.002 369.061 226.391 369.061H224.021V375.394H224.691V373.385H226.391C226.572 373.385 226.735 373.376 226.898 373.358L228.345 375.394H229.078ZM226.373 372.816H224.691V369.64H226.373C227.64 369.64 228.309 370.219 228.309 371.232C228.309 372.228 227.64 372.816 226.373 372.816Z" stroke="white" stroke-width="0.6" mask="url(#path-18-outside-2_1_3)"/>
<path d="M231.68 374.815V372.463H234.955V371.893H231.68V369.64H235.353V369.061H231.011V375.394H235.489V374.815H231.68Z" stroke="white" stroke-width="0.6" mask="url(#path-18-outside-2_1_3)"/>
<path d="M242.246 375.394H242.951L240.057 369.061H239.396L236.501 375.394H237.198L237.958 373.702H241.486L242.246 375.394ZM238.202 373.159L239.722 369.758L241.242 373.159H238.202Z" stroke="white" stroke-width="0.6" mask="url(#path-18-outside-2_1_3)"/>
<path d="M244.451 375.394H248.667V374.815H245.121V369.061H244.451V375.394Z" stroke="white" stroke-width="0.6" mask="url(#path-18-outside-2_1_3)"/>
<path d="M250.23 375.394H250.9V369.061H250.23V375.394Z" stroke="white" stroke-width="0.6" mask="url(#path-18-outside-2_1_3)"/>
<path d="M254.643 375.394H255.312V369.64H257.537V369.061H252.417V369.64H254.643V375.394Z" stroke="white" stroke-width="0.6" mask="url(#path-18-outside-2_1_3)"/>
<path d="M263.719 369.061H263.05L260.878 372.617L258.707 369.061H257.993L260.526 373.205V375.394H261.186V373.205L263.719 369.061Z" stroke="white" stroke-width="0.6" mask="url(#path-18-outside-2_1_3)"/>
<g opacity="0.5">
<path d="M-2.63682 855C-5.30527 854.978 -7.96514 854.696 -10.5781 854.155C-13.7684 853.746 -16.7828 852.465 -19.2871 850.452C-21.7915 848.439 -23.688 845.774 -24.7665 842.753C-29.8754 828.236 -18.0694 804.639 -8.48688 793.263C1.63896 779.811 6.7579 763.267 5.99273 746.465C5.70155 741.925 5.25154 737.702 4.82801 734.007C3.61034 723.29 2.7368 715.53 7.4751 710.383C11.5252 705.817 19.387 703.837 33.7342 703.785C58.8816 703.653 68.8348 693.227 76.8025 684.939C79.8543 681.414 83.4243 678.37 87.3909 675.912V675.912C99.9116 669.102 113.2 667.993 118.944 673.536C121.591 676.176 124 681.191 119.447 690.614C115.971 697.537 111.292 703.792 105.629 709.09C99.8322 715.002 95.9939 718.909 98.0057 726.695C98.4557 728.517 99.0116 730.364 99.541 732.212C103.432 745.409 107.826 760.401 85.1143 770.59C80.2966 772.728 75.9289 774.47 72.0377 775.869C56.1551 782.071 46.6521 785.819 35.852 808.519C33.7607 812.927 31.9078 817.097 30.1342 821.136C21.3459 840.509 14.9134 855 -2.63682 855ZM88.635 678.657C84.9854 680.954 81.7093 683.793 78.9202 687.077C70.5024 695.84 60.0728 706.767 33.5754 706.899C20.3399 706.899 13.0075 708.668 9.75156 712.442C6.49564 716.217 6.86628 723.739 7.97805 733.558C8.40159 737.306 8.87802 741.476 9.1692 746.148C10.0874 763.765 4.70286 781.135 -6.0251 795.163C-15.5282 806.407 -26.2489 828.816 -21.9077 841.618C-20.9991 844.131 -19.41 846.345 -17.3168 848.013C-15.2235 849.681 -12.7078 850.738 -10.0487 851.067C11.3399 855.37 17.2429 842.04 27.0107 819.948C28.8107 815.909 30.6636 811.713 32.7548 807.278C44.0844 783.523 54.6463 779.3 70.6347 772.965C74.473 771.461 78.8408 769.771 83.5791 767.686C103.776 758.633 100.15 746.201 96.2851 733.03C95.7292 731.156 95.1733 729.256 94.6968 727.408C92.2615 717.932 97.0792 713.049 103.141 706.873C108.566 701.825 113.048 695.854 116.377 689.241C118.415 684.939 120.109 679.132 116.535 675.753C111.797 671.293 99.8057 672.507 88.6085 678.604L88.635 678.657Z" fill="white"/>
<path d="M-9.8755 873L-13 872.842C-12.8411 869.911 -8.92223 800.976 18.7748 780.805C49.3051 758.654 58.8905 734.893 63.4713 719.052C68.7671 700.254 96.2789 695.29 97.444 695L98 698.089C97.7352 698.089 71.3356 702.973 66.49 719.923C61.7767 736.319 51.9266 760.766 20.6813 783.472C-5.87714 802.64 -9.84902 872.182 -9.8755 873Z" fill="white"/>
</g>
<g opacity="0.5">
<path d="M381.637 909C384.305 908.978 386.965 908.696 389.578 908.155C392.768 907.746 395.783 906.465 398.287 904.452C400.792 902.439 402.688 899.774 403.767 896.753C408.875 882.236 397.069 858.639 387.487 847.263C377.361 833.811 372.242 817.267 373.007 800.465C373.298 795.925 373.748 791.702 374.172 788.007C375.39 777.29 376.263 769.53 371.525 764.383C367.475 759.817 359.613 757.837 345.266 757.785C320.118 757.653 310.165 747.227 302.197 738.939C299.146 735.414 295.576 732.37 291.609 729.912V729.912C279.088 723.102 265.8 721.993 260.056 727.536C257.409 730.176 255 735.191 259.553 744.614C263.029 751.537 267.708 757.792 273.371 763.09C279.168 769.002 283.006 772.909 280.994 780.695C280.544 782.517 279.988 784.364 279.459 786.212C275.568 799.409 271.174 814.401 293.886 824.59C298.703 826.728 303.071 828.47 306.962 829.869C322.845 836.071 332.348 839.819 343.148 862.519C345.239 866.927 347.092 871.097 348.866 875.136C357.654 894.509 364.087 909 381.637 909ZM290.365 732.657C294.015 734.954 297.291 737.793 300.08 741.077C308.498 749.84 318.927 760.767 345.425 760.899C358.66 760.899 365.993 762.668 369.248 766.442C372.504 770.217 372.134 777.739 371.022 787.558C370.598 791.306 370.122 795.476 369.831 800.148C368.913 817.765 374.297 835.135 385.025 849.163C394.528 860.407 405.249 882.816 400.908 895.618C399.999 898.131 398.41 900.345 396.317 902.013C394.223 903.681 391.708 904.738 389.049 905.067C367.66 909.37 361.757 896.04 351.989 873.948C350.189 869.909 348.336 865.713 346.245 861.278C334.916 837.523 324.354 833.3 308.365 826.965C304.527 825.461 300.159 823.771 295.421 821.686C275.224 812.633 278.85 800.201 282.715 787.03C283.271 785.156 283.827 783.256 284.303 781.408C286.739 771.932 281.921 767.049 275.859 760.873C270.434 755.825 265.952 749.854 262.623 743.241C260.585 738.939 258.891 733.132 262.465 729.753C267.203 725.293 279.194 726.507 290.391 732.604L290.365 732.657Z" fill="white"/>
<path d="M388.875 927L392 926.842C391.841 923.911 387.922 854.976 360.225 834.805C329.695 812.654 320.11 788.893 315.529 773.052C310.233 754.254 282.721 749.29 281.556 749L281 752.089C281.265 752.089 307.664 756.973 312.51 773.923C317.223 790.319 327.073 814.766 358.319 837.472C384.877 856.64 388.849 926.182 388.875 927Z" fill="white"/>
</g>
<g opacity="0.5">
<path d="M215.935 797.607C214.813 797.979 213.601 797.979 212.479 797.607C211.897 797.428 211.362 797.123 210.911 796.715C210.459 796.307 210.103 795.805 209.867 795.244C208.826 793.277 207.531 791.454 206.014 789.825C203.769 789.169 201.788 787.823 200.351 785.978C198.914 784.134 198.094 781.884 198.008 779.547C197.921 777.211 198.573 774.907 199.87 772.962C201.167 771.016 203.043 769.528 205.234 768.708C207.424 767.888 209.817 767.777 212.074 768.392C214.33 769.007 216.336 770.317 217.807 772.135C219.277 773.952 220.138 776.187 220.268 778.521C220.397 780.855 219.788 783.171 218.527 785.14C218.583 787.259 218.917 789.361 219.52 791.393C220.424 793.676 219.013 796.356 216.372 797.448L215.935 797.607ZM206.004 769.428C203.909 770.102 202.088 771.432 200.81 773.223C199.532 775.014 198.865 777.168 198.91 779.367C198.955 781.566 199.708 783.692 201.057 785.43C202.407 787.167 204.281 788.423 206.401 789.011H206.53L206.61 789.11C208.228 790.828 209.604 792.758 210.701 794.847V794.847C210.885 795.29 211.164 795.686 211.52 796.007C211.875 796.328 212.298 796.566 212.757 796.703C213.816 797.04 214.961 796.987 215.985 796.554C218.169 795.681 219.351 793.487 218.626 791.671C217.996 789.506 217.662 787.266 217.633 785.011V784.872L217.712 784.753C218.879 782.985 219.468 780.898 219.396 778.78C219.325 776.663 218.597 774.621 217.314 772.935C216.03 771.249 214.255 770.003 212.232 769.369C210.21 768.736 208.04 768.746 206.024 769.398L206.004 769.428Z" fill="white"/>
<path d="M212.578 794.877L206.63 784.187L209.768 785.17L210.562 782.966L212.439 783.959L213.869 781.21L217.146 793.011L216.263 793.259L213.611 783.691L212.827 785.2L211.069 784.267L210.334 786.301L208.537 785.746L213.383 794.43L212.578 794.877Z" fill="white"/>
<path d="M219.571 794.963L212.235 797.906L213.423 800.863L220.759 797.92L219.571 794.963Z" fill="white"/>
<path d="M219.552 791.463L209.857 795.353L211.766 800.106L221.461 796.216L219.552 791.463Z" fill="white"/>
</g>
<path opacity="0.5" d="M157.319 662.816C155.8 660.513 153.428 658.908 150.725 658.354C148.022 657.8 145.209 658.344 142.905 659.864C141.764 660.617 140.783 661.587 140.017 662.719C139.251 663.851 138.715 665.123 138.44 666.462C137.885 669.166 138.427 671.979 139.946 674.282C140.208 674.717 140.521 675.119 140.877 675.481C141.108 675.743 141.353 675.992 141.61 676.229C143.935 678.454 149.292 682.444 161.208 687.635C161.148 674.638 159.537 668.108 158.498 665.16C158.384 664.825 158.25 664.497 158.099 664.176C157.892 663.694 157.631 663.238 157.319 662.816V662.816ZM152.199 673.959C151.134 674.66 149.885 675.031 148.61 675.024C147.334 675.017 146.09 674.633 145.033 673.92C143.976 673.207 143.154 672.197 142.67 671.017C142.186 669.837 142.062 668.54 142.314 667.289C142.566 666.039 143.182 664.891 144.085 663.989C144.988 663.088 146.137 662.474 147.388 662.225C148.638 661.975 149.935 662.101 151.114 662.588C152.292 663.074 153.301 663.898 154.012 664.956C154.488 665.665 154.819 666.461 154.985 667.298C155.152 668.135 155.151 668.998 154.982 669.835C154.814 670.672 154.481 671.467 154.003 672.175C153.526 672.883 152.913 673.489 152.199 673.959V673.959Z" fill="white"/>
<g opacity="0.5">
<path d="M153.336 761.789L124.971 756L121.006 775.409L149.371 781.197L153.336 761.789Z" fill="white"/>
<path d="M121 775.411L137.397 767.457L149.364 781.198L121 775.411Z" fill="#E8E8E8"/>
<path d="M153.325 761.787L136.671 770.983L124.962 756L153.325 761.787Z" fill="#F0F0F0"/>
</g>
<path opacity="0.5" d="M194.74 720C192.921 719.994 191.14 720.522 189.623 721.517C188.106 722.512 186.92 723.929 186.215 725.59C184.614 724.734 182.792 724.366 180.98 724.532C179.168 724.697 177.446 725.39 176.03 726.522C171.127 730.487 173.648 734.402 173.648 734.402C177.11 742.768 193.819 747 193.819 747C193.819 747 204.175 733.332 201.584 724.669C201.584 724.669 201.083 720.06 194.74 720Z" fill="white"/>
<g opacity="0.5">
<path d="M267.306 691.998L245.662 673.099L231.973 688.777L229.087 692.082L235.276 691.662L253.617 707.677L267.306 691.998Z" fill="white"/>
<path d="M250.756 692.474C250.47 692.8 250.094 693.035 249.675 693.147C249.256 693.26 248.813 693.246 248.402 693.107C247.991 692.968 247.63 692.71 247.366 692.366C247.101 692.022 246.944 691.607 246.915 691.174C246.886 690.741 246.986 690.309 247.203 689.933C247.419 689.557 247.742 689.254 248.131 689.062C248.52 688.87 248.957 688.797 249.387 688.853C249.818 688.909 250.222 689.092 250.548 689.378C250.766 689.567 250.944 689.798 251.072 690.056C251.2 690.314 251.276 690.595 251.295 690.883C251.314 691.171 251.277 691.459 251.184 691.732C251.092 692.005 250.946 692.257 250.756 692.474V692.474Z" fill="#DDDDDD"/>
<path d="M256.18 697.222C255.894 697.548 255.518 697.783 255.099 697.895C254.68 698.008 254.237 697.994 253.826 697.855C253.415 697.716 253.054 697.458 252.789 697.114C252.525 696.77 252.368 696.355 252.339 695.922C252.31 695.489 252.41 695.058 252.626 694.682C252.843 694.306 253.166 694.002 253.555 693.81C253.944 693.618 254.381 693.545 254.811 693.601C255.242 693.657 255.646 693.84 255.972 694.126C256.189 694.316 256.367 694.546 256.494 694.805C256.622 695.063 256.698 695.344 256.717 695.631C256.737 695.919 256.699 696.207 256.607 696.48C256.515 696.753 256.369 697.005 256.18 697.222V697.222Z" fill="#DDDDDD"/>
<path d="M245.446 687.82C245.16 688.147 244.784 688.381 244.365 688.494C243.946 688.607 243.503 688.593 243.092 688.454C242.681 688.314 242.32 688.057 242.055 687.713C241.791 687.369 241.634 686.954 241.605 686.521C241.576 686.088 241.676 685.656 241.892 685.28C242.109 684.904 242.432 684.601 242.821 684.409C243.21 684.216 243.647 684.144 244.077 684.2C244.508 684.256 244.912 684.439 245.238 684.725C245.676 685.108 245.943 685.65 245.982 686.23C246.021 686.81 245.828 687.382 245.446 687.82V687.82Z" fill="#DDDDDD"/>
</g>
<g opacity="0.5">
<path d="M327.366 701.789L322.372 699.595C322.176 699.509 322.021 699.349 321.943 699.15C321.865 698.95 321.869 698.728 321.955 698.531C322.041 698.335 322.201 698.18 322.401 698.102C322.601 698.024 322.823 698.028 323.02 698.114L326.548 699.65L329.095 694.006C329.183 693.81 329.345 693.658 329.546 693.582C329.746 693.505 329.969 693.512 330.165 693.6C330.361 693.688 330.514 693.85 330.59 694.051C330.666 694.251 330.659 694.474 330.571 694.67L327.366 701.789Z" fill="white"/>
<path d="M333.068 706.539C331.417 707.699 329.459 708.343 327.442 708.39C325.425 708.438 323.439 707.887 321.735 706.806C320.032 705.725 318.687 704.164 317.871 702.32C317.055 700.475 316.805 698.43 317.152 696.444C317.499 694.457 318.427 692.618 319.82 691.159C321.213 689.699 323.007 688.686 324.976 688.246C326.945 687.806 329.001 687.959 330.883 688.687C332.764 689.414 334.388 690.683 335.549 692.333C337.102 694.547 337.713 697.286 337.248 699.949C336.783 702.612 335.279 704.982 333.068 706.539V706.539ZM322.147 691.055C320.733 692.049 319.646 693.44 319.023 695.052C318.4 696.664 318.269 698.424 318.646 700.11C319.024 701.796 319.893 703.333 321.145 704.525C322.396 705.718 323.973 706.512 325.676 706.809C327.379 707.106 329.132 706.891 330.713 706.192C332.294 705.494 333.633 704.342 334.559 702.883C335.485 701.424 335.958 699.723 335.917 697.996C335.876 696.268 335.324 694.592 334.33 693.178C332.99 691.289 330.958 690.007 328.676 689.609C326.394 689.211 324.047 689.731 322.147 691.055V691.055Z" fill="white"/>
</g>
<g opacity="0.5">
<path d="M199.053 657.573L193.256 656.731L190.664 651.479C190.52 651.186 190.221 651 189.894 651C189.568 651 189.269 651.185 189.124 651.479L186.532 656.731L180.735 657.573C180.033 657.675 179.751 658.542 180.26 659.038L184.454 663.127L183.464 668.9C183.344 669.6 184.081 670.136 184.709 669.805L189.894 667.079C195.542 670.048 195.187 669.904 195.478 669.904C195.656 669.904 195.833 669.848 195.983 669.74C196.247 669.547 196.38 669.222 196.325 668.9L195.334 663.127L199.529 659.038C200.037 658.543 199.757 657.676 199.053 657.573Z" fill="white"/>
<path d="M189.457 664.641L185.263 660.552C184.754 660.057 185.035 659.19 185.738 659.088L191.535 658.246L192.77 655.745L190.664 651.479C190.519 651.186 190.221 651 189.894 651C189.568 651 189.269 651.185 189.124 651.479L186.532 656.731L180.735 657.573C180.033 657.675 179.751 658.542 180.259 659.038L184.454 663.127L183.463 668.9C183.344 669.6 184.081 670.136 184.709 669.805L188.954 667.574L189.457 664.641Z" fill="#E0E0E0"/>
</g>
<path opacity="0.5" d="M40.8439 656.688C44.6237 656.688 47.6878 653.624 47.6878 649.844C47.6878 646.064 44.6237 643 40.8439 643C37.0641 643 34 646.064 34 649.844C34 653.624 37.0641 656.688 40.8439 656.688Z" fill="white"/>
<path opacity="0.5" d="M256.604 644.52C255.306 643.584 248.611 639.166 245.088 644.846C242.913 648.353 244.109 651.469 247.691 653.622C247.691 653.622 247.694 653.624 247.694 653.624C260.166 661.139 282.045 676.83 301.246 703.415C301.246 703.415 285.36 666.356 256.604 644.52Z" fill="white"/>
<g opacity="0.5">
<path d="M-2.63682 855C-5.30527 854.978 -7.96514 854.696 -10.5781 854.155C-13.7684 853.746 -16.7828 852.465 -19.2871 850.452C-21.7915 848.439 -23.688 845.774 -24.7665 842.753C-29.8754 828.236 -18.0694 804.639 -8.48688 793.263C1.63896 779.811 6.7579 763.267 5.99273 746.465C5.70155 741.925 5.25154 737.702 4.82801 734.007C3.61034 723.29 2.7368 715.53 7.4751 710.383C11.5252 705.817 19.387 703.837 33.7342 703.785C58.8816 703.653 68.8348 693.227 76.8025 684.939C79.8543 681.414 83.4243 678.37 87.3909 675.912V675.912C99.9116 669.102 113.2 667.993 118.944 673.536C121.591 676.176 124 681.191 119.447 690.614C115.971 697.537 111.292 703.792 105.629 709.09C99.8322 715.002 95.9939 718.909 98.0057 726.695C98.4557 728.517 99.0116 730.364 99.541 732.212C103.432 745.409 107.826 760.401 85.1143 770.59C80.2966 772.728 75.9289 774.47 72.0377 775.869C56.1551 782.071 46.6521 785.819 35.852 808.519C33.7607 812.927 31.9078 817.097 30.1342 821.136C21.3459 840.509 14.9134 855 -2.63682 855ZM88.635 678.657C84.9854 680.954 81.7093 683.793 78.9202 687.077C70.5024 695.84 60.0728 706.767 33.5754 706.899C20.3399 706.899 13.0075 708.668 9.75156 712.442C6.49564 716.217 6.86628 723.739 7.97805 733.558C8.40159 737.306 8.87802 741.476 9.1692 746.148C10.0874 763.765 4.70286 781.135 -6.0251 795.163C-15.5282 806.407 -26.2489 828.816 -21.9077 841.618C-20.9991 844.131 -19.41 846.345 -17.3168 848.013C-15.2235 849.681 -12.7078 850.738 -10.0487 851.067C11.3399 855.37 17.2429 842.04 27.0107 819.948C28.8107 815.909 30.6636 811.713 32.7548 807.278C44.0844 783.523 54.6463 779.3 70.6347 772.965C74.473 771.461 78.8408 769.771 83.5791 767.686C103.776 758.633 100.15 746.201 96.2851 733.03C95.7292 731.156 95.1733 729.256 94.6968 727.408C92.2615 717.932 97.0792 713.049 103.141 706.873C108.566 701.825 113.048 695.854 116.377 689.241C118.415 684.939 120.109 679.132 116.535 675.753C111.797 671.293 99.8057 672.507 88.6085 678.604L88.635 678.657Z" fill="white"/>
<path d="M-9.8755 873L-13 872.842C-12.8411 869.911 -8.92223 800.976 18.7748 780.805C49.3051 758.654 58.8905 734.893 63.4713 719.052C68.7671 700.254 96.2789 695.29 97.444 695L98 698.089C97.7352 698.089 71.3356 702.973 66.49 719.923C61.7767 736.319 51.9266 760.766 20.6813 783.472C-5.87714 802.64 -9.84902 872.182 -9.8755 873Z" fill="white"/>
</g>
<g opacity="0.5">
<path d="M381.637 909C384.305 908.978 386.965 908.696 389.578 908.155C392.768 907.746 395.783 906.465 398.287 904.452C400.792 902.439 402.688 899.774 403.767 896.753C408.875 882.236 397.069 858.639 387.487 847.263C377.361 833.811 372.242 817.267 373.007 800.465C373.298 795.925 373.748 791.702 374.172 788.007C375.39 777.29 376.263 769.53 371.525 764.383C367.475 759.817 359.613 757.837 345.266 757.785C320.118 757.653 310.165 747.227 302.197 738.939C299.146 735.414 295.576 732.37 291.609 729.912V729.912C279.088 723.102 265.8 721.993 260.056 727.536C257.409 730.176 255 735.191 259.553 744.614C263.029 751.537 267.708 757.792 273.371 763.09C279.168 769.002 283.006 772.909 280.994 780.695C280.544 782.517 279.988 784.364 279.459 786.212C275.568 799.409 271.174 814.401 293.886 824.59C298.703 826.728 303.071 828.47 306.962 829.869C322.845 836.071 332.348 839.819 343.148 862.519C345.239 866.927 347.092 871.097 348.866 875.136C357.654 894.509 364.087 909 381.637 909ZM290.365 732.657C294.015 734.954 297.291 737.793 300.08 741.077C308.498 749.84 318.927 760.767 345.425 760.899C358.66 760.899 365.993 762.668 369.248 766.442C372.504 770.217 372.134 777.739 371.022 787.558C370.598 791.306 370.122 795.476 369.831 800.148C368.913 817.765 374.297 835.135 385.025 849.163C394.528 860.407 405.249 882.816 400.908 895.618C399.999 898.131 398.41 900.345 396.317 902.013C394.223 903.681 391.708 904.738 389.049 905.067C367.66 909.37 361.757 896.04 351.989 873.948C350.189 869.909 348.336 865.713 346.245 861.278C334.916 837.523 324.354 833.3 308.365 826.965C304.527 825.461 300.159 823.771 295.421 821.686C275.224 812.633 278.85 800.201 282.715 787.03C283.271 785.156 283.827 783.256 284.303 781.408C286.739 771.932 281.921 767.049 275.859 760.873C270.434 755.825 265.952 749.854 262.623 743.241C260.585 738.939 258.891 733.132 262.465 729.753C267.203 725.293 279.194 726.507 290.391 732.604L290.365 732.657Z" fill="white"/>
<path d="M388.875 927L392 926.842C391.841 923.911 387.922 854.976 360.225 834.805C329.695 812.654 320.11 788.893 315.529 773.052C310.233 754.254 282.721 749.29 281.556 749L281 752.089C281.265 752.089 307.664 756.973 312.51 773.923C317.223 790.319 327.073 814.766 358.319 837.472C384.877 856.64 388.849 926.182 388.875 927Z" fill="white"/>
</g>
<g opacity="0.5">
<path d="M215.935 797.607C214.813 797.979 213.601 797.979 212.479 797.607C211.897 797.428 211.362 797.123 210.911 796.715C210.459 796.307 210.103 795.805 209.867 795.244C208.826 793.277 207.531 791.454 206.014 789.825C203.769 789.169 201.788 787.823 200.351 785.978C198.914 784.134 198.094 781.884 198.008 779.547C197.921 777.211 198.573 774.907 199.87 772.962C201.167 771.016 203.043 769.528 205.234 768.708C207.424 767.888 209.817 767.777 212.074 768.392C214.33 769.007 216.336 770.317 217.807 772.135C219.277 773.952 220.138 776.187 220.268 778.521C220.397 780.855 219.788 783.171 218.527 785.14C218.583 787.259 218.917 789.361 219.52 791.393C220.424 793.676 219.013 796.356 216.372 797.448L215.935 797.607ZM206.004 769.428C203.909 770.102 202.088 771.432 200.81 773.223C199.532 775.014 198.865 777.168 198.91 779.367C198.955 781.566 199.708 783.692 201.057 785.43C202.407 787.167 204.281 788.423 206.401 789.011H206.53L206.61 789.11C208.228 790.828 209.604 792.758 210.701 794.847V794.847C210.885 795.29 211.164 795.686 211.52 796.007C211.875 796.328 212.298 796.566 212.757 796.703C213.816 797.04 214.961 796.987 215.985 796.554C218.169 795.681 219.351 793.487 218.626 791.671C217.996 789.506 217.662 787.266 217.633 785.011V784.872L217.712 784.753C218.879 782.985 219.468 780.898 219.396 778.78C219.325 776.663 218.597 774.621 217.314 772.935C216.03 771.249 214.255 770.003 212.232 769.369C210.21 768.736 208.04 768.746 206.024 769.398L206.004 769.428Z" fill="white"/>
<path d="M212.578 794.877L206.63 784.187L209.768 785.17L210.562 782.966L212.439 783.959L213.869 781.21L217.146 793.011L216.263 793.259L213.611 783.691L212.827 785.2L211.069 784.267L210.334 786.301L208.537 785.746L213.383 794.43L212.578 794.877Z" fill="white"/>
<path d="M219.571 794.963L212.235 797.906L213.423 800.863L220.759 797.92L219.571 794.963Z" fill="white"/>
<path d="M219.552 791.463L209.857 795.353L211.766 800.106L221.461 796.216L219.552 791.463Z" fill="white"/>
</g>
<path opacity="0.5" d="M157.319 662.816C155.8 660.513 153.428 658.908 150.725 658.354C148.022 657.8 145.209 658.344 142.905 659.864C141.764 660.617 140.783 661.587 140.017 662.719C139.251 663.851 138.715 665.123 138.44 666.462C137.885 669.166 138.427 671.979 139.946 674.282C140.208 674.717 140.521 675.119 140.877 675.481C141.108 675.743 141.353 675.992 141.61 676.229C143.935 678.454 149.292 682.444 161.208 687.635C161.148 674.638 159.537 668.108 158.498 665.16C158.384 664.825 158.25 664.497 158.099 664.176C157.892 663.694 157.631 663.238 157.319 662.816V662.816ZM152.199 673.959C151.134 674.66 149.885 675.031 148.61 675.024C147.334 675.017 146.09 674.633 145.033 673.92C143.976 673.207 143.154 672.197 142.67 671.017C142.186 669.837 142.062 668.54 142.314 667.289C142.566 666.039 143.182 664.891 144.085 663.989C144.988 663.088 146.137 662.474 147.388 662.225C148.638 661.975 149.935 662.101 151.114 662.588C152.292 663.074 153.301 663.898 154.012 664.956C154.488 665.665 154.819 666.461 154.985 667.298C155.152 668.135 155.151 668.998 154.982 669.835C154.814 670.672 154.481 671.467 154.003 672.175C153.526 672.883 152.913 673.489 152.199 673.959V673.959Z" fill="white"/>
<g opacity="0.5">
<path d="M153.336 761.789L124.971 756L121.006 775.409L149.371 781.197L153.336 761.789Z" fill="white"/>
<path d="M121 775.411L137.397 767.457L149.364 781.198L121 775.411Z" fill="#E8E8E8"/>
<path d="M153.325 761.787L136.671 770.983L124.962 756L153.325 761.787Z" fill="#F0F0F0"/>
</g>
<path opacity="0.5" d="M194.74 720C192.921 719.994 191.14 720.522 189.623 721.517C188.106 722.512 186.92 723.929 186.215 725.59C184.614 724.734 182.792 724.366 180.98 724.532C179.168 724.697 177.446 725.39 176.03 726.522C171.127 730.487 173.648 734.402 173.648 734.402C177.11 742.768 193.819 747 193.819 747C193.819 747 204.175 733.332 201.584 724.669C201.584 724.669 201.083 720.06 194.74 720Z" fill="white"/>
<g opacity="0.5">
<path d="M267.306 691.998L245.662 673.099L231.973 688.777L229.087 692.082L235.276 691.662L253.617 707.677L267.306 691.998Z" fill="white"/>
<path d="M250.756 692.474C250.47 692.8 250.094 693.035 249.675 693.147C249.256 693.26 248.813 693.246 248.402 693.107C247.991 692.968 247.63 692.71 247.366 692.366C247.101 692.022 246.944 691.607 246.915 691.174C246.886 690.741 246.986 690.309 247.203 689.933C247.419 689.557 247.742 689.254 248.131 689.062C248.52 688.87 248.957 688.797 249.387 688.853C249.818 688.909 250.222 689.092 250.548 689.378C250.766 689.567 250.944 689.798 251.072 690.056C251.2 690.314 251.276 690.595 251.295 690.883C251.314 691.171 251.277 691.459 251.184 691.732C251.092 692.005 250.946 692.257 250.756 692.474V692.474Z" fill="#DDDDDD"/>
<path d="M256.18 697.222C255.894 697.548 255.518 697.783 255.099 697.895C254.68 698.008 254.237 697.994 253.826 697.855C253.415 697.716 253.054 697.458 252.789 697.114C252.525 696.77 252.368 696.355 252.339 695.922C252.31 695.489 252.41 695.058 252.626 694.682C252.843 694.306 253.166 694.002 253.555 693.81C253.944 693.618 254.381 693.545 254.811 693.601C255.242 693.657 255.646 693.84 255.972 694.126C256.189 694.316 256.367 694.546 256.494 694.805C256.622 695.063 256.698 695.344 256.717 695.631C256.737 695.919 256.699 696.207 256.607 696.48C256.515 696.753 256.369 697.005 256.18 697.222V697.222Z" fill="#DDDDDD"/>
<path d="M245.446 687.82C245.16 688.147 244.784 688.381 244.365 688.494C243.946 688.607 243.503 688.593 243.092 688.454C242.681 688.314 242.32 688.057 242.055 687.713C241.791 687.369 241.634 686.954 241.605 686.521C241.576 686.088 241.676 685.656 241.892 685.28C242.109 684.904 242.432 684.601 242.821 684.409C243.21 684.216 243.647 684.144 244.077 684.2C244.508 684.256 244.912 684.439 245.238 684.725C245.676 685.108 245.943 685.65 245.982 686.23C246.021 686.81 245.828 687.382 245.446 687.82V687.82Z" fill="#DDDDDD"/>
</g>
<g opacity="0.5">
<path d="M327.366 701.789L322.372 699.595C322.176 699.509 322.021 699.349 321.943 699.15C321.865 698.95 321.869 698.728 321.955 698.531C322.041 698.335 322.201 698.18 322.401 698.102C322.601 698.024 322.823 698.028 323.02 698.114L326.548 699.65L329.095 694.006C329.183 693.81 329.345 693.658 329.546 693.582C329.746 693.505 329.969 693.512 330.165 693.6C330.361 693.688 330.514 693.85 330.59 694.051C330.666 694.251 330.659 694.474 330.571 694.67L327.366 701.789Z" fill="white"/>
<path d="M333.068 706.539C331.417 707.699 329.459 708.343 327.442 708.39C325.425 708.438 323.439 707.887 321.735 706.806C320.032 705.725 318.687 704.164 317.871 702.32C317.055 700.475 316.805 698.43 317.152 696.444C317.499 694.457 318.427 692.618 319.82 691.159C321.213 689.699 323.007 688.686 324.976 688.246C326.945 687.806 329.001 687.959 330.883 688.687C332.764 689.414 334.388 690.683 335.549 692.333C337.102 694.547 337.713 697.286 337.248 699.949C336.783 702.612 335.279 704.982 333.068 706.539V706.539ZM322.147 691.055C320.733 692.049 319.646 693.44 319.023 695.052C318.4 696.664 318.269 698.424 318.646 700.11C319.024 701.796 319.893 703.333 321.145 704.525C322.396 705.718 323.973 706.512 325.676 706.809C327.379 707.106 329.132 706.891 330.713 706.192C332.294 705.494 333.633 704.342 334.559 702.883C335.485 701.424 335.958 699.723 335.917 697.996C335.876 696.268 335.324 694.592 334.33 693.178C332.99 691.289 330.958 690.007 328.676 689.609C326.394 689.211 324.047 689.731 322.147 691.055V691.055Z" fill="white"/>
</g>
<g opacity="0.5">
<path d="M199.053 657.573L193.256 656.731L190.664 651.479C190.52 651.186 190.221 651 189.894 651C189.568 651 189.269 651.185 189.124 651.479L186.532 656.731L180.735 657.573C180.033 657.675 179.751 658.542 180.26 659.038L184.454 663.127L183.464 668.9C183.344 669.6 184.081 670.136 184.709 669.805L189.894 667.079C195.542 670.048 195.187 669.904 195.478 669.904C195.656 669.904 195.833 669.848 195.983 669.74C196.247 669.547 196.38 669.222 196.325 668.9L195.334 663.127L199.529 659.038C200.037 658.543 199.757 657.676 199.053 657.573Z" fill="white"/>
<path d="M189.457 664.641L185.263 660.552C184.754 660.057 185.035 659.19 185.738 659.088L191.535 658.246L192.77 655.745L190.664 651.479C190.519 651.186 190.221 651 189.894 651C189.568 651 189.269 651.185 189.124 651.479L186.532 656.731L180.735 657.573C180.033 657.675 179.751 658.542 180.259 659.038L184.454 663.127L183.463 668.9C183.344 669.6 184.081 670.136 184.709 669.805L188.954 667.574L189.457 664.641Z" fill="#E0E0E0"/>
</g>
<path opacity="0.5" d="M40.8439 656.688C44.6237 656.688 47.6878 653.624 47.6878 649.844C47.6878 646.064 44.6237 643 40.8439 643C37.0641 643 34 646.064 34 649.844C34 653.624 37.0641 656.688 40.8439 656.688Z" fill="white"/>
<path opacity="0.5" d="M256.604 644.52C255.306 643.584 248.611 639.166 245.088 644.846C242.913 648.353 244.109 651.469 247.691 653.622C247.691 653.622 247.694 653.624 247.694 653.624C260.166 661.139 282.045 676.83 301.246 703.415C301.246 703.415 285.36 666.356 256.604 644.52Z" fill="white"/>
</g>
<defs>
<linearGradient id="paint0_linear_1_3" x1="-187.5" y1="406" x2="430.659" y2="691.48" gradientUnits="userSpaceOnUse">
<stop stop-color="#FF6480"/>
<stop offset="1" stop-color="#F22E63"/>
</linearGradient>
<clipPath id="clip0_1_3">
<rect width="375" height="812" fill="white"/>
</clipPath>
</defs>
</svg>
